<svg width="571" height="69" viewBox="0 0 571 69" fill="none" xmlns="http://www.w3.org/2000/svg"><path d="M3.258 6.844l3.95 9.785 4.156-9.785h2.588l4.178 9.82 3.94-9.82h3.133l-6.528 16.063h-1.033l-4.995-11.76-5.018 11.76h-1L.092 6.845h3.167zm26.452 0v15.86h-3.065V6.843h3.065zm16.257 0v2.395h-5.63v13.464H37.27V9.24h-5.63V6.844h14.326zm4.928 0v6.675h8.23V6.844h3.066v15.86h-3.066v-6.699h-8.23v6.698H47.83V6.843h3.065zm31.867 0v2.395h-5.63v13.464h-3.066V9.24h-5.63V6.844h14.326zm4.928 0v6.675h8.23V6.844h3.066v15.86H95.92v-6.699h-8.23v6.698h-3.066V6.843h3.066zm24.59 0v2.395h-7.186v4.166h6.879v2.396h-6.879v4.507h7.345v2.395h-10.411V6.843h10.252zm14.384 0c1.453 0 2.638.378 3.554 1.135.915.757 1.373 1.703 1.373 2.838 0 .727-.193 1.366-.579 1.919-.378.552-.931.991-1.657 1.316v.137c1.105.25 1.964.745 2.577 1.487.621.734.931 1.597.931 2.588 0 .878-.227 1.665-.681 2.362-.447.688-1.071 1.207-1.873 1.555-.795.348-1.734.522-2.816.522h-6.641V6.843h5.812zm-.817 6.584c.81 0 1.449-.193 1.919-.579.469-.386.703-.923.703-1.612 0-.613-.215-1.097-.647-1.453-.431-.363-.999-.545-1.703-.545h-2.202v4.19h1.93zm.715 6.88c1.037 0 1.82-.193 2.35-.58.53-.393.795-.968.795-1.725 0-.673-.265-1.203-.795-1.59-.522-.393-1.226-.59-2.111-.59h-2.884v4.485h2.645zm18.676-13.464v2.395h-7.187v4.166h6.88v2.396h-6.88v4.507h7.346v2.395h-10.411V6.843h10.252zm5.631 0v13.464h7.697v2.395h-10.762V6.843h3.065zm12.477 0v15.86h-3.065V6.843h3.065zm13.351 0v2.395h-7.186v4.166h6.879v2.396h-6.879v4.507h7.345v2.395h-10.411V6.843h10.252zm4.167 0l4.484 10.183 4.371-10.183h3.212l-7.004 16.063h-1.067l-7.232-16.063h3.236zm23.716 0v2.395h-7.187v4.166h6.88v2.396h-6.88v4.507h7.345v2.395h-10.41V6.843h10.252zm15.202 0l7.004 15.86h-3.235l-1.647-3.86h-7.049l-1.533 3.86h-3.213l6.539-15.86h3.134zm-3.997 9.672h5.12l-2.679-6.278-2.441 6.278zm15.1-9.672l9.422 11.068V6.844h2.997v15.86h-2.633l-9.48-11.251v11.25h-2.997V6.843h2.691zm22.081 0c1.65 0 3.118.336 4.405 1.01 1.286.674 2.285 1.62 2.997 2.838.711 1.219 1.067 2.588 1.067 4.11 0 1.551-.36 2.929-1.079 4.132-.711 1.196-1.725 2.123-3.042 2.781-1.317.659-2.827.988-4.53.988h-6.459V6.843h6.641zm-.318 13.464c1.695 0 3.054-.507 4.076-1.521 1.029-1.022 1.544-2.358 1.544-4.008 0-1.71-.519-3.061-1.556-4.053-1.029-.991-2.418-1.487-4.166-1.487h-3.156v11.069h3.258zM9.786 34.844l7.004 15.86h-3.235l-1.646-3.86h-7.05l-1.533 3.86H.114l6.539-15.86h3.133zM5.79 44.516h5.12l-2.68-6.278-2.44 6.278zm20.026-9.877c.9 0 1.783.102 2.645.307.863.204 1.794.552 2.793 1.044v2.884c-.976-.56-1.88-.965-2.713-1.215a8.882 8.882 0 00-2.589-.375c-1.127 0-2.145.235-3.054.704a5.12 5.12 0 00-2.122 1.964c-.5.848-.75 1.79-.75 2.827 0 1.06.25 2.01.75 2.85.5.84 1.203 1.49 2.111 1.952.908.454 1.93.681 3.065.681.87 0 1.7-.124 2.487-.374.794-.25 1.793-.7 2.997-1.351v2.883c-1.03.538-1.976.92-2.838 1.147-.863.227-1.87.34-3.02.34-1.673 0-3.168-.332-4.485-.999a7.545 7.545 0 01-3.11-2.872 7.899 7.899 0 01-1.124-4.12c0-1.598.386-3.032 1.158-4.303a7.85 7.85 0 013.201-2.94c1.363-.69 2.895-1.034 4.598-1.034zm11.149.205v6.675h8.23v-6.675h3.066v15.86h-3.066v-6.699h-8.23v6.698H33.9v-15.86h3.065zm17.472 0v15.86h-3.065v-15.86h3.065zm13.35 0v2.395h-7.185v4.166h6.88v2.396h-6.88v4.507h7.345v2.395h-10.41v-15.86h10.25zm4.168 0l4.484 10.183 4.37-10.183h3.213l-7.004 16.063H75.95l-7.232-16.063h3.236zm23.716 0v2.395h-7.187v4.166h6.88v2.396h-6.88v4.507h7.346v2.395H85.42v-15.86h10.25zm13.169-.205c1.544 0 3.032.386 4.462 1.158v2.725c-1.642-.992-3.099-1.487-4.371-1.487-.772 0-1.377.151-1.816.454-.432.295-.647.692-.647 1.192 0 .598.405 1.15 1.214 1.657.228.152 1.102.575 2.623 1.272 1.302.613 2.24 1.294 2.815 2.043.576.75.863 1.65.863 2.702 0 1.362-.492 2.464-1.476 3.304-.976.832-2.244 1.248-3.803 1.248-1.014 0-1.888-.11-2.622-.329-.727-.227-1.544-.613-2.452-1.158V46.4c1.695 1.408 3.292 2.112 4.79 2.112.75 0 1.355-.163 1.817-.488.461-.325.692-.757.692-1.294 0-.734-.401-1.332-1.203-1.794a59.706 59.706 0 00-2.577-1.306c-1.249-.567-2.184-1.23-2.804-1.986-.613-.757-.92-1.635-.92-2.634 0-1.332.496-2.392 1.487-3.179.992-.794 2.301-1.192 3.928-1.192zm15.679 0c.9 0 1.782.102 2.645.307.863.204 1.794.552 2.793 1.044v2.884c-.977-.56-1.881-.965-2.714-1.215a8.878 8.878 0 00-2.588-.375c-1.128 0-2.146.235-3.054.704a5.122 5.122 0 00-2.123 1.964c-.499.848-.749 1.79-.749 2.827 0 1.06.25 2.01.749 2.85.5.84 1.204 1.49 2.112 1.952.908.454 1.93.681 3.065.681a8.17 8.17 0 002.486-.374c.795-.25 1.794-.7 2.997-1.351v2.883c-1.029.538-1.975.92-2.838 1.147-.863.227-1.869.34-3.02.34-1.672 0-3.167-.332-4.484-.999a7.547 7.547 0 01-3.111-2.872 7.9 7.9 0 01-1.123-4.12c0-1.598.386-3.032 1.158-4.303a7.844 7.844 0 013.201-2.94c1.362-.69 2.895-1.034 4.598-1.034zm11.148.205v6.675h8.231v-6.675h3.065v15.86h-3.065v-6.699h-8.231v6.698h-3.065v-15.86h3.065zm22.468-.205c1.642 0 3.118.34 4.427 1.022a7.761 7.761 0 013.145 2.929 7.866 7.866 0 011.169 4.19c0 1.483-.382 2.86-1.147 4.131a7.845 7.845 0 01-3.133 2.952c-1.324.696-2.819 1.044-4.484 1.044-1.643 0-3.137-.355-4.484-1.067-1.34-.711-2.384-1.687-3.134-2.929-.749-1.248-1.124-2.626-1.124-4.132 0-1.453.375-2.82 1.124-4.098a7.773 7.773 0 013.099-2.975c1.317-.711 2.831-1.067 4.542-1.067zm-5.597 8.14c0 1.052.238 1.998.715 2.838a4.98 4.98 0 001.987 1.953c.855.462 1.82.692 2.895.692 1.627 0 2.963-.51 4.007-1.532 1.052-1.022 1.578-2.339 1.578-3.95 0-1.053-.238-1.999-.715-2.84a4.854 4.854 0 00-1.998-1.963c-.856-.462-1.82-.693-2.895-.693s-2.044.235-2.906.704a4.813 4.813 0 00-1.976 1.953c-.461.832-.692 1.778-.692 2.838zm19.822-7.935v13.464h7.697v2.395h-10.762v-15.86h3.065zm17.381 0l7.004 15.86h-3.235l-1.646-3.86h-7.05l-1.533 3.86h-3.212l6.539-15.86h3.133zm-3.996 9.672h5.12l-2.679-6.278-2.441 6.278zm18.119-9.672c1.491 0 2.706.412 3.644 1.237.939.825 1.408 1.9 1.408 3.224 0 .9-.235 1.688-.704 2.361-.462.667-1.15 1.193-2.066 1.579.507.272.957.643 1.351 1.112.393.47.881 1.26 1.464 2.373.969 1.922 1.688 3.247 2.157 3.973h-3.417c-.235-.348-.552-.904-.954-1.669-.877-1.687-1.521-2.823-1.929-3.405-.409-.59-.803-1.007-1.181-1.25a2.318 2.318 0 00-1.306-.374h-1.112v6.698h-3.065v-15.86h5.71zm-.693 6.766c.803 0 1.431-.2 1.885-.602.462-.401.692-.95.692-1.646 0-.727-.227-1.268-.681-1.623-.454-.364-1.101-.545-1.941-.545h-1.907v4.416h1.952zm13.874-6.97c1.544 0 3.031.385 4.461 1.157v2.725c-1.642-.992-3.099-1.487-4.371-1.487-.772 0-1.377.151-1.816.454-.431.295-.647.692-.647 1.192 0 .598.405 1.15 1.215 1.657.227.152 1.101.575 2.622 1.272 1.302.613 2.24 1.294 2.816 2.043.575.75.862 1.65.862 2.702 0 1.362-.492 2.464-1.475 3.304-.977.832-2.245 1.248-3.804 1.248-1.014 0-1.888-.11-2.622-.329-.727-.227-1.544-.613-2.452-1.158V46.4c1.695 1.408 3.292 2.112 4.791 2.112.749 0 1.354-.163 1.816-.488.462-.325.693-.757.693-1.294 0-.734-.402-1.332-1.204-1.794a59.706 59.706 0 00-2.577-1.306c-1.249-.567-2.183-1.23-2.804-1.986-.613-.757-.92-1.635-.92-2.634 0-1.332.496-2.392 1.488-3.179.991-.794 2.3-1.192 3.928-1.192zm10.422.204v6.675h8.23v-6.675h3.066v15.86h-3.066v-6.699h-8.23v6.698h-3.065v-15.86h3.065zm17.472 0v15.86h-3.065v-15.86h3.065zm9.23 0c1.483 0 2.687.431 3.61 1.294.931.855 1.396 1.96 1.396 3.315 0 1.37-.469 2.478-1.407 3.326-.939.848-2.176 1.271-3.713 1.271h-2.951v6.653h-3.066v-15.86h6.131zm-.761 6.811c.818 0 1.453-.185 1.907-.556.462-.378.693-.935.693-1.669 0-1.46-.939-2.191-2.815-2.191h-2.089v4.416h2.304zM260.675 32.794a.5.5 0 01.344.117.38.38 0 01.133.303.42.42 0 01-.116.3.457.457 0 01-.308.137v.007a.383.383 0 01.151.097c.047.044.111.135.191.272l.182.307h-.348l-.072-.136a2.108 2.108 0 00-.176-.305.586.586 0 00-.142-.157.292.292 0 00-.168-.042h-.129v.64h-.282v-1.54h.74zm-.11.668a.342.342 0 00.212-.057.195.195 0 00.076-.165.183.183 0 00-.08-.16.343.343 0 00-.208-.057h-.348v.439h.348zm-1.468.089a1.418 1.418 0 01.715-1.242c.226-.13.468-.196.727-.196.263 0 .506.065.728.194.222.13.396.305.521.528.126.224.189.462.189.716 0 .264-.065.508-.195.73a1.428 1.428 0 01-1.243.712c-.259 0-.501-.066-.727-.197a1.423 1.423 0 01-.715-1.245zm.265 0a1.17 1.17 0 001.173 1.177c.213 0 .411-.053.594-.16a1.167 1.167 0 00.43-1.604 1.164 1.164 0 00-.432-.43 1.152 1.152 0 00-.592-.158c-.209 0-.405.052-.587.157-.18.103-.323.247-.429.431a1.159 1.159 0 00-.157.587z" fill="#fff"/></svg>