<svg width="266" height="46" viewBox="0 0 266 46" fill="none" xmlns="http://www.w3.org/2000/svg"><path d="M7.877 1.144c1.483 0 2.686.431 3.61 1.294.93.855 1.396 1.96 1.396 3.314 0 1.37-.47 2.478-1.408 3.326-.938.847-2.175 1.27-3.711 1.27H4.812V17H1.748V1.144h6.13zm-.76 6.81c.817 0 1.452-.186 1.906-.556.462-.379.693-.935.693-1.669 0-1.46-.938-2.19-2.815-2.19H4.813v4.415h2.304zm13.45-6.81c1.49 0 2.705.412 3.643 1.237.939.825 1.408 1.9 1.408 3.223 0 .9-.235 1.688-.704 2.361-.461.666-1.15 1.192-2.066 1.578.508.272.958.643 1.351 1.112.394.47.882 1.26 1.464 2.372.969 1.922 1.688 3.247 2.157 3.973h-3.416c-.235-.348-.553-.904-.954-1.668-.878-1.688-1.52-2.823-1.93-3.406-.408-.59-.802-1.006-1.18-1.248a2.316 2.316 0 00-1.305-.375h-1.113V17h-3.064V1.144h5.71zm-.692 6.764c.802 0 1.43-.2 1.884-.601.461-.401.692-.95.692-1.646 0-.726-.227-1.267-.68-1.623-.455-.363-1.102-.545-1.942-.545h-1.907v4.415h1.953zM36.798.94c1.642 0 3.118.34 4.427 1.022a7.757 7.757 0 013.144 2.928 7.86 7.86 0 011.17 4.189c0 1.483-.383 2.86-1.147 4.131a7.85 7.85 0 01-3.133 2.951c-1.324.696-2.819 1.044-4.483 1.044-1.642 0-3.137-.355-4.484-1.067-1.339-.71-2.383-1.687-3.132-2.928-.75-1.248-1.124-2.626-1.124-4.131 0-1.453.374-2.82 1.124-4.098a7.762 7.762 0 013.098-2.974c1.317-.71 2.83-1.067 4.54-1.067zm-5.595 8.139c0 1.051.238 1.997.715 2.837a4.98 4.98 0 001.986 1.952c.855.462 1.82.693 2.894.693 1.627 0 2.963-.511 4.007-1.533 1.052-1.021 1.578-2.338 1.578-3.95 0-1.051-.239-1.997-.715-2.837a4.85 4.85 0 00-1.998-1.964c-.855-.461-1.82-.692-2.894-.692-1.075 0-2.043.235-2.906.704a4.813 4.813 0 00-1.975 1.952c-.462.832-.692 1.778-.692 2.838zM56.276.939c1.952 0 3.89.436 5.811 1.306v2.803c-1.922-.976-3.814-1.464-5.675-1.464-1.158 0-2.187.23-3.087.692-.9.462-1.6 1.128-2.1 1.998-.492.863-.738 1.827-.738 2.894 0 1.62.538 2.925 1.612 3.916 1.082.984 2.505 1.476 4.268 1.476.484 0 .946-.042 1.384-.125.447-.083.977-.242 1.59-.477v-2.633h-2.623V8.93h5.687v6.538c-.78.544-1.718.972-2.815 1.282-1.09.303-2.225.454-3.405.454-1.672 0-3.19-.344-4.551-1.033-1.355-.688-2.414-1.653-3.178-2.894-.757-1.24-1.136-2.626-1.136-4.154 0-1.551.383-2.955 1.147-4.211.772-1.256 1.842-2.232 3.212-2.928 1.377-.697 2.91-1.045 4.597-1.045zm14.653.205c1.491 0 2.706.412 3.644 1.237.938.825 1.407 1.9 1.407 3.223 0 .9-.234 1.688-.703 2.361-.462.666-1.15 1.192-2.066 1.578.507.272.957.643 1.35 1.112.394.47.882 1.26 1.465 2.372.968 1.922 1.687 3.247 2.156 3.973h-3.416c-.235-.348-.553-.904-.954-1.668-.877-1.688-1.52-2.823-1.93-3.406-.408-.59-.801-1.006-1.18-1.248a2.315 2.315 0 00-1.305-.375h-1.112V17H65.22V1.144h5.71zm-.692 6.764c.802 0 1.43-.2 1.884-.601.462-.401.693-.95.693-1.646 0-.726-.227-1.267-.681-1.623-.454-.363-1.101-.545-1.941-.545h-1.907v4.415h1.952zm19.75-6.764v2.395h-7.185v4.165h6.878V10.1h-6.878v4.506h7.344V17H79.738V1.144h10.249zm7.162-.205c1.544 0 3.031.386 4.461 1.158v2.724c-1.642-.991-3.099-1.487-4.37-1.487-.772 0-1.377.152-1.816.454-.431.295-.647.693-.647 1.192 0 .598.405 1.15 1.215 1.657.227.152 1.1.575 2.622 1.271 1.301.613 2.239 1.294 2.814 2.043.576.75.863 1.65.863 2.702 0 1.362-.492 2.463-1.475 3.303-.977.832-2.244 1.248-3.803 1.248-1.014 0-1.888-.11-2.622-.329-.726-.227-1.543-.613-2.451-1.158v-3.019c1.695 1.408 3.291 2.111 4.79 2.111.748 0 1.354-.162 1.816-.488.461-.325.692-.756.692-1.294 0-.734-.401-1.331-1.203-1.793a59.618 59.618 0 00-2.577-1.305c-1.248-.568-2.183-1.23-2.803-1.986-.613-.757-.92-1.635-.92-2.634 0-1.332.496-2.39 1.487-3.178.992-.794 2.3-1.192 3.927-1.192zm11.953 0c1.543 0 3.03.386 4.46 1.158v2.724c-1.642-.991-3.098-1.487-4.37-1.487-.771 0-1.377.152-1.816.454-.431.295-.647.693-.647 1.192 0 .598.405 1.15 1.215 1.657.227.152 1.101.575 2.622 1.271 1.301.613 2.24 1.294 2.815 2.043.575.75.862 1.65.862 2.702 0 1.362-.492 2.463-1.475 3.303-.976.832-2.244 1.248-3.803 1.248-1.014 0-1.887-.11-2.621-.329-.727-.227-1.544-.613-2.452-1.158v-3.019c1.695 1.408 3.291 2.111 4.79 2.111.749 0 1.354-.162 1.816-.488.461-.325.692-.756.692-1.294 0-.734-.401-1.331-1.203-1.793a59.62 59.62 0 00-2.577-1.305c-1.248-.568-2.183-1.23-2.803-1.986-.613-.757-.919-1.635-.919-2.634 0-1.332.495-2.39 1.486-3.178.992-.794 2.301-1.192 3.928-1.192zm19.988.205L136.093 17h-3.234l-1.646-3.86h-7.049L122.632 17h-3.212l6.538-15.856h3.132zm-3.995 9.67h5.119l-2.679-6.277-2.44 6.277zm15.096-9.67l9.421 11.066V1.144h2.996V17h-2.633l-9.477-11.248V17h-2.997V1.144h2.69zm22.077 0c1.65 0 3.117.336 4.404 1.01 1.286.673 2.285 1.62 2.996 2.837.712 1.219 1.067 2.588 1.067 4.11 0 1.55-.359 2.928-1.078 4.13-.711 1.196-1.725 2.123-3.042 2.781-1.317.659-2.826.988-4.529.988h-6.458V1.144h6.64zm-.318 13.461c1.695 0 3.053-.507 4.075-1.52 1.029-1.022 1.544-2.358 1.544-4.007 0-1.71-.519-3.061-1.555-4.052-1.03-.992-2.418-1.487-4.166-1.487h-3.155v11.066h3.257zm27.446-13.461v2.395h-7.185v4.165h6.878V10.1h-6.878v4.506h7.344V17h-10.408V1.144h10.249zm10.602 0L207.001 17h-3.235l-1.646-3.86h-7.048L193.539 17h-3.212l6.538-15.856h3.133zm-3.996 9.67h5.119l-2.678-6.277-2.441 6.277zm18.116-9.67c1.49 0 2.705.412 3.643 1.237.938.825 1.408 1.9 1.408 3.223 0 .9-.235 1.688-.704 2.361-.462.666-1.15 1.192-2.066 1.578.507.272.957.643 1.351 1.112.393.47.881 1.26 1.464 2.372.968 1.922 1.687 3.247 2.156 3.973h-3.416c-.235-.348-.552-.904-.953-1.668-.878-1.688-1.521-2.823-1.93-3.406-.409-.59-.802-1.006-1.18-1.248a2.319 2.319 0 00-1.306-.375h-1.112V17h-3.065V1.144h5.71zm-.693 6.764c.802 0 1.43-.2 1.884-.601.462-.401.693-.95.693-1.646 0-.726-.227-1.267-.681-1.623-.454-.363-1.101-.545-1.941-.545h-1.907v4.415h1.952zm12.191-6.764l9.421 11.066V1.144h2.996V17H235.4l-9.478-11.248V17h-2.996V1.144h2.69zm-210.713 28v2.395h-5.63V45H6.21V31.539H.579v-2.395h14.324zm4.813 0v9.227c0 .946.14 1.7.42 2.26.287.56.753 1.02 1.396 1.384.643.363 1.392.545 2.247.545.939 0 1.733-.17 2.384-.511.658-.348 1.139-.817 1.441-1.407.303-.598.454-1.423.454-2.475v-9.023h3.065v9.42c0 2.134-.64 3.776-1.918 4.926-1.28 1.143-3.088 1.714-5.426 1.714-1.468 0-2.743-.26-3.825-.783-1.074-.522-1.895-1.275-2.463-2.259-.567-.99-.851-2.152-.851-3.484v-9.534h3.076zm17.468 0V45H34.12V29.144h3.064zm16.254 0v2.395h-5.63V45h-3.064V31.539h-5.63v-2.395h14.324zm4.995 0V45h-3.065V29.144h3.065zm11.226-.205c1.642 0 3.117.34 4.426 1.022a7.757 7.757 0 013.144 2.928 7.86 7.86 0 011.17 4.188c0 1.484-.383 2.86-1.147 4.132a7.85 7.85 0 01-3.133 2.951c-1.324.696-2.818 1.044-4.483 1.044-1.642 0-3.136-.355-4.483-1.067-1.34-.71-2.384-1.687-3.133-2.928-.75-1.248-1.124-2.626-1.124-4.132 0-1.452.375-2.818 1.124-4.097a7.762 7.762 0 013.099-2.974c1.316-.71 2.83-1.067 4.54-1.067zm-5.596 8.139c0 1.051.238 1.997.715 2.837a4.98 4.98 0 001.986 1.952c.855.462 1.82.693 2.895.693 1.626 0 2.962-.511 4.006-1.533 1.052-1.021 1.578-2.338 1.578-3.95 0-1.051-.238-1.997-.715-2.837a4.85 4.85 0 00-1.998-1.964c-.855-.461-1.82-.692-2.894-.692-1.075 0-2.043.235-2.906.704a4.813 4.813 0 00-1.975 1.952c-.461.832-.692 1.778-.692 2.837zm19.443-7.934l9.421 11.066V29.144h2.997V45H93.29l-9.477-11.248V45h-2.997V29.144h2.69zm20.454 9.25v2.679h-5.88v-2.679h5.88zm11.839-9.25v2.395h-6.606v4.097h6.606v2.418h-6.606V45h-3.065V29.144h9.671zm8.036 0c1.491 0 2.705.412 3.644 1.237.938.825 1.407 1.9 1.407 3.223 0 .9-.235 1.688-.704 2.361-.461.666-1.15 1.192-2.065 1.578.507.272.957.643 1.35 1.112.394.47.882 1.26 1.464 2.372.969 1.922 1.688 3.247 2.157 3.973h-3.416c-.235-.348-.553-.904-.954-1.669-.878-1.687-1.521-2.822-1.929-3.405-.409-.59-.803-1.006-1.181-1.248a2.313 2.313 0 00-1.305-.375h-1.112V45h-3.065V29.144h5.709zm-.692 6.764c.802 0 1.43-.2 1.884-.601.462-.401.692-.95.692-1.646 0-.726-.227-1.267-.681-1.623-.454-.363-1.101-.545-1.941-.545h-1.906v4.415h1.952zm19.75-6.764v2.395h-7.185v4.165h6.878V38.1h-6.878v4.506h7.344V45h-10.409V29.144h10.25zm12.815 0v2.395h-7.185v4.165h6.878V38.1h-6.878v4.506h7.343V45h-10.408V29.144h10.25zm16.89-.205c.9 0 1.782.103 2.644.307.863.204 1.794.552 2.792 1.044v2.883c-.976-.56-1.88-.965-2.712-1.214a8.887 8.887 0 00-2.588-.375c-1.128 0-2.145.235-3.053.704a5.121 5.121 0 00-2.123 1.963c-.499.848-.749 1.79-.749 2.827 0 1.059.25 2.008.749 2.848.499.84 1.203 1.491 2.111 1.953.908.454 1.93.68 3.065.68.87 0 1.699-.124 2.485-.374.795-.25 1.794-.7 2.997-1.35v2.882c-1.029.538-1.975.92-2.838 1.147-.862.227-1.869.34-3.019.34-1.672 0-3.166-.333-4.483-.998a7.544 7.544 0 01-3.11-2.872 7.898 7.898 0 01-1.124-4.12c0-1.597.386-3.03 1.158-4.302a7.844 7.844 0 013.201-2.94c1.362-.688 2.894-1.033 4.597-1.033zm15.981 0c1.642 0 3.118.34 4.427 1.022a7.765 7.765 0 013.144 2.928 7.863 7.863 0 011.169 4.188c0 1.484-.382 2.86-1.147 4.132a7.841 7.841 0 01-3.132 2.951c-1.324.696-2.819 1.044-4.484 1.044-1.642 0-3.136-.355-4.483-1.067-1.339-.71-2.383-1.687-3.133-2.928-.749-1.248-1.123-2.626-1.123-4.132 0-1.452.374-2.818 1.123-4.097a7.767 7.767 0 013.099-2.974c1.317-.71 2.83-1.067 4.54-1.067zm-5.595 8.139c0 1.051.238 1.997.715 2.837a4.971 4.971 0 001.986 1.952c.855.462 1.82.693 2.894.693 1.627 0 2.963-.511 4.007-1.533 1.052-1.021 1.577-2.338 1.577-3.95 0-1.051-.238-1.997-.715-2.837a4.85 4.85 0 00-1.997-1.964c-.855-.461-1.82-.692-2.895-.692-1.074 0-2.043.235-2.905.704a4.81 4.81 0 00-1.975 1.952c-.462.832-.692 1.778-.692 2.837zm19.704-7.934v9.227c0 .946.14 1.7.42 2.26.287.56.753 1.02 1.396 1.384.643.363 1.392.545 2.247.545.939 0 1.733-.17 2.384-.511.658-.348 1.139-.817 1.441-1.407.303-.598.454-1.423.454-2.475v-9.023h3.065v9.42c0 2.134-.639 3.776-1.918 4.926-1.279 1.143-3.088 1.714-5.426 1.714-1.468 0-2.743-.26-3.825-.783-1.074-.522-1.895-1.275-2.463-2.259-.567-.99-.851-2.152-.851-3.484v-9.534h3.076zm20.045 0c1.491 0 2.705.412 3.643 1.237.939.825 1.408 1.9 1.408 3.223 0 .9-.235 1.688-.704 2.361-.461.666-1.15 1.192-2.066 1.578.507.272.958.643 1.351 1.112.393.47.882 1.26 1.464 2.372.969 1.922 1.688 3.247 2.157 3.973h-3.417c-.234-.348-.552-.904-.953-1.669-.878-1.687-1.521-2.822-1.93-3.405-.408-.59-.802-1.006-1.18-1.248a2.316 2.316 0 00-1.305-.375h-1.113V45h-3.064V29.144h5.709zm-.692 6.764c.802 0 1.43-.2 1.884-.601.461-.401.692-.95.692-1.646 0-.726-.227-1.267-.681-1.623-.454-.363-1.101-.545-1.941-.545h-1.907v4.415h1.953zm13.87-6.969c1.544 0 3.031.386 4.461 1.158v2.724c-1.642-.991-3.099-1.487-4.37-1.487-.772 0-1.377.152-1.816.454-.432.295-.647.693-.647 1.192 0 .598.405 1.15 1.214 1.657.227.152 1.101.575 2.622 1.271 1.302.613 2.24 1.294 2.815 2.044.575.749.863 1.65.863 2.7 0 1.363-.492 2.464-1.476 3.304-.976.832-2.243 1.248-3.802 1.248-1.014 0-1.888-.11-2.622-.329-.727-.227-1.544-.613-2.452-1.158v-3.019c1.695 1.408 3.292 2.111 4.79 2.111.749 0 1.355-.162 1.816-.488.462-.325.692-.756.692-1.294 0-.734-.401-1.331-1.203-1.793a59.5 59.5 0 00-2.576-1.305c-1.249-.568-2.183-1.23-2.804-1.986-.613-.757-.919-1.635-.919-2.634 0-1.331.496-2.39 1.487-3.178.991-.794 2.3-1.192 3.927-1.192zm17.605.205v2.395h-7.185v4.165h6.878V38.1h-6.878v4.506h7.344V45h-10.409V29.144h10.25zm7.162-.205c1.544 0 3.031.386 4.461 1.158v2.724c-1.642-.991-3.099-1.487-4.37-1.487-.772 0-1.377.152-1.816.454-.431.295-.647.693-.647 1.192 0 .598.405 1.15 1.214 1.657.227.152 1.101.575 2.622 1.271 1.302.613 2.24 1.294 2.815 2.044.575.749.863 1.65.863 2.7 0 1.363-.492 2.464-1.476 3.304-.976.832-2.243 1.248-3.802 1.248-1.014 0-1.888-.11-2.622-.329-.726-.227-1.544-.613-2.452-1.158v-3.019c1.695 1.408 3.292 2.111 4.79 2.111.749 0 1.355-.162 1.816-.488.462-.325.693-.756.693-1.294 0-.734-.401-1.331-1.204-1.793a58.92 58.92 0 00-2.576-1.305c-1.249-.568-2.183-1.23-2.804-1.986-.612-.757-.919-1.635-.919-2.634 0-1.331.496-2.39 1.487-3.178.991-.794 2.3-1.192 3.927-1.192z" fill="#fff"/></svg>