<?xml version="1.0" encoding="UTF-8"?>
<svg xmlns="http://www.w3.org/2000/svg" id="a" data-name="Layer 1" viewBox="0 0 1573 800" width="1573px" height="800px">
  <path d="M108.86,649.31c-.19,11.69-.38,23.38-.57,35.08-10.6,4.84-21.15,9.8-31.66,14.9.61-1.16.93-2.89.96-5.21-.61,1.16-.88,1.43-.82.82.07-.6.22-1.25.47-1.95-.71-.52-1.2.14-1.46,2-.26,1.85-.4,3.51-.42,4.95-2.16,1.05-4.32,2.11-6.47,3.17.29-5.07.38-9.96.25-14.68-.13-4.72.02-9.64.43-14.76.27-2.44.68-4.73,1.24-6.87.56-2.14.73-4.17.52-6.1.62-1.72,1.05-2.79,1.3-3.19-.23-1.34-.18-2.44.13-3.31.31-.85.29-2.08-.05-3.66.61-.85,1.04-2.04,1.3-3.61.6.32.9-.03.91-1.05.01-1.01.08-2.13.22-3.34-.23-1.34-.61-1.47-1.17-.36-.55,1.11-1.08,1.92-1.56,2.41-.61.56-1.1,1.21-1.46,1.95-.37.75-.86,1.25-1.46,1.51-.09-2.86.3-5.5,1.17-7.9-.11-1.11-.34-1.88-.7-2.31-.36-.42-.47-1.39-.33-2.9.26-12.87.45-24.84.57-35.91.12-11.07.19-22.99.21-35.77-7.45,2.73-14.88,5.52-22.29,8.37-.36,47.49-.72,94.98-1.08,142.45-12.79,6.56-25.51,13.32-38.14,20.27.08-53.32.15-106.64.23-159.97-.12-.87-.12-1.4,0-1.61.12-.2.24-.24.36-.15.12.11.24.21.36.31.12.11.18-.14.18-.76.12-1.88-.03-3.04-.45-3.49-.42-.44-.57-1.61-.45-3.5,0-.3,0-.61,0-.92,0-5.67.02-11.34.02-17.01.48.43.75,1.32.81,2.67.06,1.35.09,2.8.09,4.33.73-.28,1.45-.56,2.18-.84.49-2.02.46-3.38-.08-4.09-.54-.71-.81-2.13-.81-4.28-.73.28-1.46.55-2.18.83.04-26.51.08-53.02.11-79.53-2.95.92-5.89,1.86-8.83,2.8.24-5.01.67-9.7,1.29-14.05.61-4.35,1.05-9.02,1.3-14.03.98-.29,1.78-.3,2.4-.02.62.28,1.23.49,1.85.61.74.09,1.2-.43,1.39-1.56.19-1.13.59-1.78,1.2-1.96-.34-1.28-.67-2.56-1.01-3.84-1.42.1-3.12.74-5.09,1.93.86-9.79,1.77-19.34,2.71-28.66.94-9.31,1.91-18.83,2.92-28.57,7.09-1.4,13.79-2.88,20.09-4.47,6.3-1.57,13.01-3.13,20.14-4.65-.16,21.08-.32,42.16-.47,63.25-1,.86-1.96.96-2.88.32-.92-.64-1.58.13-1.96,2.31-.13.33-.25.67-.38,1,0,.3,0,.67,0,1.12,0,.45,0,.89,0,1.34,0,.45.12.64.37.57.74.1,1.27-.2,1.58-.88.31-.68.66-1.37,1.03-2.07.49-.13.93-.25,1.3-.35.37-.1.62-.75.76-1.98.21,5.28.26,10.68.16,16.18-.1,5.52-.18,11.24-.22,17.17-.08,11.28-.17,22.56-.25,33.85,3.31-.18,6.9-1.12,10.77-2.79,3.88-1.66,7.72-2.93,11.54-3.82.57-7.43.77-14.75.61-21.97-.17-7.21-.15-15.07.07-23.56-1.11-.57-2.5-.49-4.17.25-1.68.75-3.19,1.16-4.55,1.24.27-2.41.51-5.04.72-7.88.21-2.83.76-5.1,1.64-6.8-.11-1.43-.26-2.12-.44-2.08-.19.05-.15-.69.11-2.23.41-3.61.81-7,1.22-10.17.4-3.17.75-6.68,1.04-10.55.25-.06.41-.46.48-1.21.07-.74.35-1.03.85-.86.13-.91.07-1.33-.17-1.27-.25.06-.44-.19-.55-.75.26-1.52.47-3.02.61-4.51.14-1.49.34-2.85.6-4.08-.12-.85-.14-1.35-.08-1.51.06-.16.16-.1.28.16.12.27.28.38.46.34.19-.04.28-.35.29-.94.37-.08.57-.63.58-1.66.01-1.02.14-1.56.39-1.62-.12-.84-.3-.8-.56.13-.26.93-.57,1.3-.94,1.09.55-5.08,1.1-10.08,1.65-15,.55-4.92,1.16-9.78,1.84-14.56,4.01-.5,7.8-1.16,11.38-1.99,3.58-.82,7.44-1.62,11.58-2.38.63-.4.91-.09.83.91-.08,1.02.07,1.48.45,1.41.13-.59.36-1.06.68-1.4.32-.34.54-.81.68-1.41.87.42,1.88.29,3.01-.33,1.14-.63,1.82-.25,2.05,1.12,1.27-1.36,2.76-2.12,4.45-2.28,1.7-.15,3.42-.53,5.19-1.12.35,1.35.45,3.16.29,5.43-.16,2.28-.2,4.54-.11,6.77-.87-.4-1.2.64-.99,3.14.22,5.59.44,11.17.67,16.75-.14,1.15-.2,2.5-.16,4.04.04,1.54.04,3.02.02,4.42-.27,8.91-.54,17.82-.81,26.74-.02,1.42.01,3.02.11,4.82.09,1.81,0,3.44-.27,4.91-.52,1.25-1.18,1.97-1.99,2.17-.81.2-1.35,1.03-1.62,2.5-.14,1.16-.06,1.78.25,1.84.31.07.68.04,1.12-.06.44-.11.84-.21,1.21-.3.37-.09.68.12.92.62.15,13.73.04,27.94-.32,42.62-.36,14.7-.6,29.22-.71,43.56,0,.42-.01.84-.02,1.26-.27,16.77-.55,33.54-.82,50.31-.04,2.54-.08,5.14-.13,7.82-.04,2.68-.14,4.78-.27,8.16-.11,2.47-.23,4.94-.34,7.41-.15,1.46-.44,2.48-.87,3.07-.44.59-.78,1.5-1.05,2.72-.14.9-.02,1.27.35,1.13.37-.14.54.07.54.63-.37.14-.55.57-.57,1.27-.01.71-.14,1.11-.38,1.2.36.42.62.95.79,1.58.17.63.37,1.19.61,1.65.34,1.27.33,2.18-.04,2.75-.37.57-.69,1.61-.96,3.12.36.42.66.36.91-.16.25-.52.49-.26.71.77-.15,9.02-.29,18.03-.44,27.05ZM166.6,492.45c.92.29-.66,4.6.34,4.34-.59,25.97-1.19,51.94-1.78,77.91-.02.8-.12,1.18-.3,1.1-.18-.07-.36-.34-.53-.82-.17-.48-.42-.72-.72-.76-.31-.03-.53.38-.67,1.23-.28,1.44-.33,2.25-.15,2.45.18.21.42.33.73.36.3.03.61.06.92.09.31.04.51.43.62,1.19-.12,5.25-.24,10.49-.36,15.74.22,1.26.66,1.9,1.34,1.93.67.03,1.25.23,1.73.59,3.95-1.39,7.92-2.78,11.88-4.14,1.86-.64,3.72-1.21,5.57-1.71,1.86-.5,3.49-1.77,4.9-3.81,1.23-48.07,2.45-96.16,3.67-144.26,0-.26.01-.53.02-.79.14-5.67.29-11.34.43-17,.57-.11,1.13-.22,1.7-.34.16-1.34-.05-1.96-.61-1.85-.57.11-.9-.47-.99-1.77.17-6.59.34-13.18.5-19.78-.22-1.27-.08-1.76.41-1.45.49.31.75.07.77-.72.13-.28.34-.98.62-2.07-.63-.15-1.03.05-1.24.61-.2.56-.56.88-1.06.97-1.36-.8-3.02-.98-4.97-.5-1.96.49-3.88.9-5.76,1.24-.63.12-.93-.36-.91-1.43-.25.05-.51.29-.77.73-.26.45-.58.84-.97,1.17-.64.38-1.33.51-2.08.38-.75-.13-1.44,0-2.07.38.29-1.65.19-2.83-.29-3.55-.26.59-.62.98-1.06,1.2-.44.22-.56,1.11-.34,2.67-1.37-.28-2.51,0-3.4.83-.9.84-1.79,1.61-2.68,2.31-.33,14.54-.66,29.08-.99,43.62,0,.27-.01.54-.02.81-.29,12.52-.57,25.04-.86,37.55-.62-.1-1.06.21-1.32.95-.27.74-.71,1.06-1.32.95-.39.64-.09-1.29,1.96,3.38.04.03.08.05.12.08ZM235.71,392c-.37-.19-.18-.23-.2.28-.02.52-.03,1.02-.04,1.53-.02.52-.09.97-.23,1.37-.14.4-.39.38-.75-.07-.18.46-.35.92-.53,1.37-.04,1.28.29,1.8.99,1.55.7-.24,1.1.15,1.19,1.14-.04,1.53-.51,2.37-1.39,2.51-.01.52.17.74.55.67.38-.06.62.28.72,1.02-.21,3.08-.31,6.46-.29,10.13.02,3.68-.09,7.31-.32,10.9-.03,1.02-.12,1.99-.27,2.9-.15.92-.12,1.73.12,2.45-.41,1.35-.7,1.34-.84-.03-.15-1.37.56.56.18.63-.29,1.33.24.49-.27.84-.51.35-1.86,2.43-1.64,4.72.06.17.11.34.17.51.06.24.11.49.17.73.5-.1.74.3.72,1.19-.03.89-1.62.38-.99.26,1.15-.73,1.63-.18,1.46,1.62.63-.12.81.16.54.85-.27.69-.35,1.28-.24,1.76-.15.79-.1,1.29.15,1.49.24.21.29.84.13,1.88-.82,23.99-1.53,48.52-2.14,73.58-.6,25.07-1.43,49.35-2.49,72.9-.27.6-.41,1.33-.44,2.23-.03.89-.35,1.44-.97,1.64.48.6.64,1.24.5,1.92-.15.68-.24,1.78-.28,3.31-.29,1.36-.61,2.72-.95,4.1-.35,1.39-.67,2.75-.95,4.11-.27.6-.44,1.23-.52,1.88-.08.67-.43.84-1.03.54-.39.64-.37,1.14.05,1.5.42.37.37,1.01-.15,1.95-.15.81-.38,1.34-.69,1.57-.32.24-.43.97-.34,2.2-.88.56-1.53.66-1.95.3-.42-.36-.94-.56-1.56-.6-.31,2.14-.25,3.33.18,3.56.42.23.74.95.96,2.14-1.45,3.3-3.08,6.29-4.87,8.98-1.8,2.69-3.66,5.28-5.57,7.78-7.2,2.67-14.39,5.33-21.55,7.97-7.17,2.65-14.32,5.54-21.46,8.69-.62.25-.94-.15-.98-1.2-.04-1.04-.3-1.6-.78-1.67-.14.59-.15,1.32-.05,2.21.1.89-.03,1.41-.4,1.56-8.11,3.3-16.2,6.67-24.27,10.12-2.78-.16-5.15-1.4-7.1-3.71-1.95-2.3-3.68-5.2-5.19-8.68-3.02-6.96-4.83-16.82-5.45-29.56.18-9.87.36-19.75.54-29.63.02-.84.11-1.21.29-1.15.18.08.36.22.54.42.18.21.39.27.64.18.24-.09.38-.55.39-1.39.29-2.31.16-3.71-.38-4.21-.54-.49-.98-1.36-1.32-2.62.41-22.4.82-44.8,1.22-67.2-.22-1.31-.12-1.9.31-1.75.43.15.77.05,1.02-.31-.2-2.43-.04-4.55.49-6.37.52-1.81.31-3.27-.66-4.37-.12.04-.22,0-.27-.13-.06-.12-.15-.16-.27-.13.02-1.11.09-1.69.22-1.73.12-.04.24.14.36.52.12.38.23.76.35,1.14.11.38.3.4.55.04.39-1.22.35-2.59-.11-4.12-.24-.48-.48-.69-.73-.62-.25.07-.43-.01-.55-.26-.25-6.84-.24-14.19.03-22.02.26-7.82.4-15.34.41-22.55,0-.28,0-.55.02-.83.14-7.93.29-15.87.43-23.81-2.68.62-5.37,1.25-8.05,1.88,1.61-14.05,3.28-27.59,5-40.6,1.73-13.01,3.41-26.45,5.04-40.32,2.14-.35,4.19-.82,6.15-1.42,1.96-.59,4.07-.93,6.33-1.01.37.5.42,1.17.15,2.03-.27.87-.21,1.27.17,1.21.61,1.01,1.11.78,1.52-.65.4-1.43.86-2.46,1.38-3.1,17.33-2.71,34.7-5.2,52.08-7.48-.29,1.35-.37,2.28-.26,2.79.95,0,1.89,0,2.84.01.39-.31.57-.2.56.32-.01.53.1.91.35,1.13.9-.64,1.85-1.09,2.87-1.36,1.01-.26.8-1.41,1.95-2.32.74.69,1.18-.63,1.64-1.47.46-.84,1.19-1.06,2.19-.67.09,1.29-.12,2.03-.63,2.23-.51.19-.9.57-1.17,1.12.86.93,1.59.71,2.19-.67.6-1.37,1.23-2.36,1.88-2.96,2.04-.77,3.68-.84,4.93-.22.19-.02.38-.05.57-.07.91-.88,2.02-1.08,3.33-.6,1.31.49,1.69,1.67,1.13,3.53.9-.63,1.72-.66,2.46-.11.74.55,1.41,1.3,2.02,2.25.6.95,1.17,1.97,1.71,3.05.54,1.09,1.11,1.84,1.73,2.28.1.75.09,1.27-.04,1.54-.13.28-.21.67-.22,1.18.44,2.24,1.23,3.29,2.37,3.14.34,1.49.77,2.83,1.3,4.03.53,1.21.77,2.83.71,4.87.93,2.67,1.53,6.03,1.79,10.05.26,4.03.45,8.19.58,12.48-.23.41-.45.82-.68,1.24ZM330.76,545.31c-.58-5-1.1-10.08-1.55-15.25-.45-5.16-.9-10.39-1.35-15.69-.11-.68-.05-1.22.15-1.61.2-.4.4-.67.59-.83.19-.16.36-.37.49-.64.13-.26.22-.75.24-1.46-.26.05-.34-.28-.25-1,.09-.72,0-1.17-.24-1.36-.37-.39-.69-.2-.96.56-.28.77-.4.68-.37-.27-.36-.63-.51-1.65-.46-3.07.05-1.42-.11-2.44-.46-3.08-.75,3.45-1.35,7.11-1.79,10.96-.45,3.86-.98,7.51-1.6,10.94-.37,1.61-.74,3.23-1.11,4.84.02,3.06-.16,5.69-.55,7.9-.39,2.21-.69,4.64-.91,7.28-.57,2.03-.97,4.3-1.18,6.82-.21,2.53-.54,4.79-.98,6.78-.7.18-1.39.35-2.09.53-.39.34-.57,1.03-.54,2.08.03,1.06-.28,1.66-.91,1.83-.04,1.2-.34,1.75-.9,1.66-.56-.09-.86.34-.89,1.29.08,1.17.21,2.14.37,2.92.16.79.35,1.63.57,2.51.62.31,1.19.04,1.72-.81.53-.85.85-1.04.96-.61-.86,6.83-1.74,13.38-2.64,19.65-.9,6.27-1.78,12.71-2.63,19.34-14.3,4.21-28.55,8.63-42.75,13.25-.4-7.19-.95-14.28-1.66-21.28-.71-7-1.33-13.98-1.86-20.94-.64-7.41-1.26-14.55-1.85-21.4-.6-6.85-1.09-14.16-1.47-21.96-.09-.96.04-1.42.42-1.4.37.03.68,0,.94-.06.17-1.52-.09-2.07-.79-1.64-.7.43-1.03.02-.99-1.22-.4-3.35-.76-6.84-1.08-10.47-.33-3.63-.49-7.54-.48-11.75.51-.36.94-1.02,1.28-1.98.34-.94.83-1.62,1.47-2.02,1.38-.08,1.93-1.81,1.66-5.2-.85-.78-1.49-.33-1.92,1.37-.43,1.71-1.15,2.68-2.15,2.92-.11-.72-.31-1.29-.6-1.72-.3-.42-.37-1.27-.2-2.55.03-.99-.14-1.57-.51-1.74-.37-.16-.61-.6-.71-1.32-1.03-15.13-2.21-29.91-3.52-44.36-1.31-14.44-2.56-29.22-3.74-44.31-1.53.76-3,1.5-4.4,2.23-1.41.74-2.76,1.85-4.06,3.33-.02-3.53,0-7.38.06-11.55.06-4.18.22-8.43.47-12.76.37-8.14.73-16.14,1.09-24.02.35-7.87.66-15.87.9-23.99.02-.76.05-1.52.07-2.28,13.68-1.51,27.38-2.92,41.08-4.22,1.62,24.32,3.24,48.25,4.87,71.81,1.63,23.55,3.24,47.21,4.85,70.97.67-1.34,1.05-3.22,1.13-5.64.08-2.42.4-4.41.95-5.97.08-2.42.28-4.56.59-6.43.31-1.86.57-3.89.77-6.1,1.66-12.33,3.3-24.57,4.9-36.7,1.6-12.13,3.24-24.3,4.91-36.5.54-1.03.85-.88.93.42.08,1.31.38,1.93.89,1.86,1.15-.37-1.77-5.8-1.58-7.31.23-1.83.71-3.29,1.77-4.61-.1-.57-.2-1.15-.3-1.72.6-6.54,1.34-12.73,2.23-18.57.89-5.83,1.69-11.89,2.41-18.18,7.87-.67,15.75-1.31,23.62-1.93.63.19.85,1.05.67,2.59-.18,1.54-.02,2.53.47,2.96.64-.29.99-1.14,1.04-2.55.05-1.41.28-2.49.68-3.22,2.54-.2,5.08-.39,7.62-.58.73,8.11,1.34,16.16,1.82,24.14.48,7.99.96,16.01,1.44,24.08.6,8.06,1.25,15.98,1.93,23.76.68,7.79,1.19,15.8,1.53,24.07-.94,1.45-1.89,2.91-2.83,4.37.14.62.29,1.25.43,1.87.99-1.3,1.92-1.55,2.78-.75.32,1.8.38,3.64.19,5.51.73,4.51,1.22,9.38,1.48,14.63.26,5.26.62,10.14,1.1,14.65,3.46-23.11,6.77-46.24,9.93-69.4,3.15-23.17,6.4-46.17,9.74-69.01,13.6-.9,27.2-1.74,40.8-2.5-1.34,9.41-2.71,18.49-4.09,27.27-1.39,8.78-2.87,17.69-4.46,26.75-.49,3.17-.95,6.27-1.37,9.33-.43,3.05-1.06,5.74-1.9,8.05-.61,6.54-1.43,12.7-2.46,18.52-1.03,5.82-1.97,11.68-2.81,17.6-.84,5.92-1.78,11.8-2.81,17.65-1.03,5.85-1.97,11.87-2.82,18.05-.66.55-1.15.18-1.48-1.11-.34-1.29-.88-1.99-1.64-2.09-.14.25-.27.49-.41.73-.03.91-.18,1.49-.44,1.75-.27.27-.42.97-.46,2.09.72,1.23,1.05,2.75.98,4.55-.04,1.13.19,1.82.69,2.07.5.25.72,1.06.68,2.41-.42,4.55-.98,9.07-1.71,13.57-.73,4.49-1.43,9.05-2.1,13.66-2.11,13.18-4.23,26.51-6.35,40-2.12,13.49-4.32,27.16-6.57,41,1.51,7.51,2.92,15.08,4.24,22.7,1.32,7.62,2.73,15.25,4.24,22.88-8.98-4.71-17.63-9.83-25.97-15.38-8.34-5.55-16.88-10.83-25.65-15.83-.63-7.25-1.3-14.39-2-21.42-.7-7.03-1.23-14.47-1.59-22.31-.31-3.89-.61-7.78-.92-11.68ZM410.37,369.26c.02-.67.07-1.23.15-1.69.08-.45.19-.9.33-1.37-.26.02-.47-.07-.66-.28-.18-.2-.4-.41-.65-.62M495.03,563.04c-.03-.23-.52-.2-.79-.47-.83-1.06-.25-.12-1.09-.79-.46-.37.65-.57.04-.78-.73-.35-1.46-.84-2.17-1.48-.72-.64-1.39-.78-2.03-.42.46.89.5,1.59.1,2.11-.39.52-.35,1.23.11,2.12.03.04.06.08.1.12.56.54.56,1.48,0,2.84-10.51,2.27-21.18,4.36-32.02,6.27-10.84,1.91-21.6,4.24-32.29,7,.26-22.35.84-43.64,1.73-63.83.89-20.19,1.64-40.96,2.25-62.32.03-.88.06-1.71.09-2.48.03-.77.23-1.18.61-1.23-.11-.65-.26-.9-.45-.76-.19.14-.09-.26.33-1.2.02-.66-.09-1.08-.34-1.27-.25-.18-.23-.73.06-1.66.65-18.84,1.31-37.69,1.96-56.54-.85-1.01-1.48-1.34-1.87-.98-.39.36-1.17.6-2.31.71.32-2.01.24-3.21-.26-3.61-.03.89-.24,1.4-.62,1.55-.39.15-.6.67-.63,1.55.25-.02.39-.26.4-.7.64-.28.89-.03.74.76-.15.79-.54.99-1.16.61-.38-.18-.59-.49-.64-.93-.05-.43-.26-.74-.64-.93-.65.28-.69.62-.13,1,.56.39.58.72.06.99-.12-.2-.36-.46-.74-.75-.37-.3-.64,0-.79.9-.73-1.03-.77-2.52-.13-4.46.64-1.94.92-3.79.86-5.55.44-1.58.78-3.16,1.02-4.73.25-1.56.52-3.24.84-5.04.28-.68.44-.81.49-.37.05.44.19.87.43,1.29.38-.03.61-.33.7-.89.08-.56.37-.64.87-.24.41-.91.25-1.67-.49-2.28-.74-.6-1.03-1.46-.86-2.58,1-6.92,2.12-13.62,3.36-20.1,1.24-6.48,2.48-12.94,3.72-19.39,13.73-.73,27.46-1.4,41.2-2-.56,16.76-1.15,33.58-1.77,50.45-.63,16.87-1.12,32.71-1.48,47.52-.53.69-.65,1.35-.35,1.96.3.61.12,1.06-.52,1.34.36.82.5,1.34.43,1.56-.07.22,0,.96.21,2.23-.56,13.12-1.06,26.97-1.48,41.57-.42,14.6-.88,29.3-1.37,44.11-.28.68-.34,1.6-.19,2.75.15,1.15-.09,1.67-.72,1.56.38.15.58.71.62,1.67.03.95.03,1.97,0,3.04-.16,1.1-.23,2.07-.19,2.92.03.85.04,1.81,0,2.88,3.34-.12,7.24-.76,11.7-1.9,4.46-1.13,8.49-1.54,12.08-1.24.14-.44.63-.73,1.47-.86.84-.13,1.18.25,1.02,1.11.28-.88.75-1.38,1.4-1.47.64-.1,1.29-.19,1.94-.29,3.55-.53,7.11-1.05,10.66-1.55-.44,14.17-.88,28.33-1.32,42.5-4.09.67-8.17,1.36-12.25,2.06.42-1.12.64-1.79.64-2-.05-.32-.1-.64-.15-.96ZM719.92,390.45c0,.68.31,1.02.96,1.01,1.16-.4,1.67.08,1.53,1.44.64,0,.83.24.57.73-.26.49-.33.93-.2,1.32-.13.59-.07.98.19,1.17.25.19.31.68.18,1.46-.25,18.35-.38,37.14-.38,56.36,0,19.23-.25,37.82-.77,55.78-.26.4-.4.94-.4,1.62,0,.69-.34,1.03-.99,1.05.52.57.71,1.1.58,1.59-.13.5-.21,1.33-.22,2.5-.27.98-.57,1.97-.9,2.95-.34.99-.64,1.97-.91,2.95-.27.4-.43.84-.5,1.33-.07.49-.43.55-1.08.18-.4.4-.37.79.09,1.17.45.38.42.86-.11,1.47-.14.59-.37.94-.69,1.05-.33.11-.43.65-.31,1.62-.92.22-1.61.15-2.06-.23-.46-.37-1.01-.65-1.66-.83-.28,1.57-.18,2.5.27,2.78.46.28.81.9,1.07,1.87-1.46,2.2-3.11,4.11-4.96,5.74-1.85,1.63-3.76,3.17-5.75,4.61-7.61.3-15.22.61-22.82.91-7.61.31-15.21.81-22.81,1.52-.66.04-1.01-.33-1.06-1.11-.06-.78-.34-1.26-.86-1.42-.14.41-.15.94-.03,1.63.12.68-.01,1.04-.41,1.06-8.65.59-17.29,1.25-25.93,1.98-2.99-.74-5.54-2.16-7.65-4.26-2.12-2.1-3.99-4.57-5.62-7.42-3.28-5.69-5.27-13.19-5.98-22.52.15-7.1.3-14.2.45-21.3.01-.6.11-.86.31-.77.19.09.38.22.57.41.19.18.41.27.67.25.26-.02.4-.33.41-.93.29-1.62.15-2.66-.42-3.11-.57-.45-1.04-1.16-1.41-2.14.34-16.1.68-32.21,1.02-48.32-.24-.98-.13-1.39.32-1.22.45.17.8.15,1.06-.06-.23-1.79-.06-3.29.48-4.52.54-1.23.3-2.31-.71-3.26-.13,0-.22-.04-.29-.13-.06-.1-.16-.14-.29-.13.02-.8.09-1.21.22-1.21.13,0,.26.14.38.43.12.29.25.58.37.88.12.29.31.33.58.12.4-.82.36-1.82-.13-2.99-.26-.38-.5-.57-.76-.56-.26.01-.45-.08-.57-.27-.28-4.98-.3-10.27-.05-15.88.25-5.61.36-11.01.34-16.21,0-.2,0-.4.01-.6.12-5.7.24-11.41.36-17.11-2.75.11-5.51.22-8.26.33,1.62-9.89,3.3-19.42,5.03-28.58,1.73-9.16,3.39-18.66,5-28.49,2.16-.04,4.23-.18,6.2-.42,1.98-.23,4.11-.27,6.39-.12.37.39.43.89.16,1.49-.27.6-.21.9.18.89.62.79,1.13.68,1.53-.33.4-1,.86-1.7,1.37-2.11,17.49-.3,34.97-.54,52.45-.72-.27.99-.34,1.67-.22,2.06.12.39,2.29-1.21,2.54-.82.25.39,2.33-1.87,2.58-1.28,3.2-.03,6.4-.07,9.6-.1,2.04-.41,3.69-.32,4.96.25.12.39.31.64.56.73.25.1.25.54-.01,1.32.51,0,.86-.15,1.05-.45.19-.29.42-.64.68-1.03,0-.59-.21-.78-.66-.58-.45.2-.8.2-1.05,0,.89-.59,2.01-.65,3.34-.17,1.33.48,1.73,1.41,1.21,2.78.89-.4,1.72-.35,2.48.13.76.48,1.45,1.12,2.08,1.89.63.78,1.23,1.6,1.79,2.48.57.88,1.16,1.51,1.8,1.89.12.58.12.98,0,1.17-.13.2-.19.49-.2.88.49,1.75,1.31,2.62,2.46,2.62.37,1.17.84,2.24,1.41,3.21.57.98.85,2.24.83,3.8,1,2.14,1.69,4.77,2.05,7.89.36,3.12.66,6.34.89,9.65-.77.4-1.18.11-1.24-.87-.06-.97-.22-1.65-.47-2.05-.38-.19-.58-.09-.58.3,0,.39,0,.78,0,1.17,0,.39-.07.73-.2,1.03-.13.29-.39.25-.76-.14.12.98.37,1.66.75,2.04.38.39.44,1.27.18,2.64,0,.98.34,1.41,1.05,1.31.7-.1,1.12.24,1.24,1.01,0,1.17-.46,1.76-1.36,1.77,0,.4.19.58.58.58.38,0,.64.29.76.87-.14,2.34-.16,4.93-.05,7.76.1,2.83.09,5.61-.06,8.34,0,.78-.08,1.52-.21,2.2-.13.69-.08,1.32.18,1.9-.39.98-.68.94-.87-.13-.18-1.07-.47-1.61-.85-1.6-.27.98-.65,1.57-1.17,1.77-.14,1.81-.28,3.62-.42,5.42ZM685.66,323.25c.26-.4.52-.79.78-1.19M651.77,425.15c.96.36,1.26.51,2.29.47-.31,19.07-.61,38.14-.91,57.21,0,.59-.12.85-.31.76-.19-.09-.38-.32-.57-.71-.19-.39-.45-.61-.77-.7-.32-.08-.56.18-.69.78-.28,1.01-.32,1.6-.13,1.78.19.19.45.33.77.4.32.08.65.16.97.24.32.09.54.41.67,1-.06,3.85-.12,7.71-.18,11.56.24.97.72,1.54,1.43,1.69.71.16,1.33.42,1.84.78,4.17-.24,8.34-.47,12.51-.68,1.96-.1,3.91-.15,5.86-.15,1.96,0,3.65-.61,5.1-1.86.45-35.85.9-71.7,1.35-107.55,0-.2,0-.39,0-.59.05-4.22.11-8.45.16-12.67.58-.01,1.15-.03,1.73-.04.14-.98-.08-1.47-.65-1.46-.58.01-.93-.46-1.04-1.45.06-4.91.12-9.82.19-14.73-.24-.98-.11-1.32.4-1.04.51.29.76.14.77-.45.13-.2.33-.69.59-1.48-.64-.18-1.05-.08-1.25.32-.2.4-.55.6-1.06.61-1.4-.76-3.09-1.07-5.07-.94-1.99.14-3.93.23-5.85.27-.64.01-.95-.37-.94-1.16-.26,0-.51.16-.78.46-.26.3-.58.56-.97.76-.64.21-1.34.23-2.11.05-.76-.18-1.47-.16-2.11.05.27-1.19.16-2.08-.34-2.66-.26.4-.62.66-1.07.76-.45.11-.56.75-.31,1.93-1.4-.36-2.55-.29-3.45.23-.91.52-1.81.98-2.7,1.4-.17,10.67-.34,21.34-.51,32.02,0,.2,0,.39,0,.59-.15,9.19-.29,18.38-.44,27.57-.65-.17-1.1,0-1.36.5-.27.5-.08,1.1-.72.93-.39.41-1.21,3.37-1.1,4.44.26.26.52.51.77.77ZM940.25,492.83c0-.2.19-.28.58-.25.29,7.06.42,13.86.37,20.38-.04,6.53-.8,11.94-2.26,16.2-.31,1.08-.61,2.15-.92,3.23.02.91-1.31,1.87-1.28,2.88-.63.94-1.19,2.14-1.68,3.59-.49,1.46-1.19,1.94-2.12,1.44-.27-.43-.47-.69-.6-.81-.13-.11.06-.34.57-.7-.01-.6-.22-.97-.61-1.11-.39-.14-.54-.7-.43-1.69-.23,1.58-.6,2.3-1.12,2.14-.53-.15-1.31-.47-2.36-.98-.1,1.59.35,2.49,1.33,2.68.98.2,1.99.35,3.04.45.04,1.61-.27,2.63-.91,3.06-.64.44-1.28.92-1.92,1.46-.38.77-.85,1.32-1.43,1.66-.58.35-1.19.78-1.83,1.32-.65.14-.92-.29-.81-1.28.11-.99-.22-1.32-1-1-.51.35-.57.75-.17,1.18.4.44.67.87.81,1.28-.24.98-.7,1.23-1.35.77-.66-.46-1.11-.2-1.36.77-2.55-.24-5.1-.49-7.65-.72-.33-.03-.65-.06-.98-.09-7.07-.64-13.77-1.25-20.13-1.86-6.35-.6-12.93-1.03-19.74-1.29-4.98-.33-9.96-.64-14.94-.93-9.24-5.25-15.38-14.54-18.39-28,.26.4.59.61.99.63.26-.18.29-.47.09-.88-.2-.4-.4-.75-.6-1.05-.2-.31-.4-.65-.6-1.05-.2-.4-.17-.69.09-.88-.14-.4-.24-.5-.3-.31-.06.2-.22.28-.49.27.12-.58.05-.88-.2-.89-.16-2.36-.24-4.27-.26-5.74-.02-1.47-.23-3.19-.64-5.17.65-.56,1-.65,1.07-.25.07.4.43.6,1.08.63.25-.97.48-1.01.69-.12.2.89.5,1.15.89.77.39-.57.38-1.11-.02-1.62-.39-.5-.73-1.06-.99-1.66.49-2.52-.11-3.92-1.81-4.19-.26-.01-.39.18-.39.57,0,.4.04.84.12,1.33.07.49.07.89.01,1.18-.06.29-.29.33-.69.12-.07-6.56-.14-13.13-.21-19.69.52.22,1.14.24,1.85.07.71-.17,1.39-.24,2.04-.22.65.02,1.23.15,1.76.36.52.22.85.72.99,1.51.26.01.39-.28.38-.87,0-.59.19-.77.58-.56,1.04.04,2.08.13,3.12.27,1.04.14,2.08.14,3.12-.02,2.46-.29,5-.18,7.61.33,2.6.52,5,.63,7.21.34,0,.4.11.65.31.75.2.11.3.36.3.75.26.01.38-.22.38-.72,0-.49.12-.73.38-.72,4.03.2,8.05.41,12.08.64.12,7.51.24,15.02.36,22.53.27.81.67,1.33,1.2,1.56.52.23.79.94.81,2.13.59.04,1.17.07,1.76.11.51-.95,1.25-1.3,2.23-1.04.98.26,1.99.43,3.04.49,1.04-.13,2.01-.11,2.93.05.91.16,1.76.27,2.54.32.64-.35,1.23-.61,1.74-.77.52-.16.97-.43,1.35-.8-.24-13.31-.49-26.62-.73-39.92-.41-1.02-1-1.64-1.78-1.89-.78-.24-1.5-.78-2.16-1.61-.66-.43-1.28-.87-1.87-1.3-.59-.43-1.34-.76-2.25-1.01,0-.4-.2-.61-.59-.63-.39-.02-.53-.32-.4-.91-1.43-.08-2.53-.47-3.32-1.21-.79-.73-1.77-1.32-2.94-1.78-.27-.41-.3-.71-.11-.9.19-.19.34-.58.47-1.16-.27-.61-.6-1.02-.99-1.23-.39-.21-.79-.53-1.18-.95-.52-.03-.8.21-.86.7-.06.49-.22.93-.46,1.31-1.83-1.07-3.62-2.1-5.39-3.07-1.76-.97-3.55-1.98-5.38-3.04.12-.59.12-.98-.02-1.18-.13-.2-.2-.5-.21-.9-.26-.01-.38.48-.37,1.46-.65-.22-1.2-.59-1.66-1.1-.46-.51-1.08-.68-1.85-.52-.14-.79-.6-1.2-1.37-1.24-.26.19-.46-.07-.59-.76-.14-.69-.27-.65-.39.13-.52-.02-.78-.37-.79-1.06,0-.69-.15-1.23-.41-1.64-.26.19-.35.53-.28,1.02.07.49-.02.74-.28.72-2.87-1.68-5.64-3.45-8.31-5.31-2.67-1.86-5.12-4.09-7.35-6.71-1.06-1.99-2.11-3.99-3.17-5.98-.39-.01-.62-.36-.69-1.05-.07-.69-.3-1.13-.69-1.34.12-.59.32-.68.58-.28.26.4.45.11.57-.87,0-.39-.23-.74-.69-1.05-.46-.3-.61.03-.47,1.02-1.59-4.16-2.43-9.56-2.5-16.23-.06-5.49-.12-10.97-.18-16.46-.05-4.7-.1-9.41-.15-14.11-.65-.99-1.3-2.03-1.95-3.12-.66-1.09-1.49-1.84-2.52-2.25.12-.98-.02-1.71-.41-2.21-.39-.49-.71-.94-.97-1.34.47-3.91.98-7.62,1.52-11.14.54-3.52,1.11-7.23,1.71-11.14.38,0,.6.11.67.3.06.2.29.1.67-.28.12-.78.02-1.18-.3-1.18-.32,0-.61-.1-.87-.3.48-2.93.93-5.52,1.35-7.77.42-2.25.74-4.74.97-7.48.39.2.64.2.77,0,.12-.19.31-.29.57-.29.11-.98-.02-1.47-.4-1.48-.38,0-.51-.39-.4-1.18.24-.98.42-1.91.54-2.79.12-.88.3-1.71.54-2.5,9.28-.11,18.59-.15,27.94-.14,9.35.02,18.78.11,28.32.26.5-.19.83.01.97.61.14.6.4,1.01.78,1.21.1-1.38.63-1.97,1.59-1.76.96.22,1.88.23,2.76.05.27.6.44,1.35.52,2.25.08.9.25,1.55.51,1.95.63.01.98-.18,1.04-.58.05-.4.41-.29,1.06.32-.27-.6-.47-1.15-.6-1.65-.14-.5-.4-.85-.79-1.06-.26-.2-.36-.35-.29-.46.06-.09.22-.15.47-.14.64.41,1.22.77,1.74,1.08.51.31,1.09.67,1.74,1.08.63-.38.68-.78.17-1.19-.52-.4-.72-.91-.6-1.5,4.51.08,9.03.16,13.54.25,4.53,3.69,8.38,8.4,11.57,14.1,3.18,5.71,5.15,13.63,5.89,23.72.14.81.09,1.31-.16,1.5-.26.19-.31.59-.17,1.2.41,1.03.66,2.29.76,3.81.1,1.51.1,3.07,0,4.68.14.61.09.91-.17.9-.26-.01-.38.19-.37.59-.11.8.09,1.21.6,1.23,0,.4-.08.55-.28.44-.19-.11-.42-.07-.67.12.53.83.77,1.8.74,2.9-.04,1.11-.11,2.26-.21,3.46.68,1.84.96,4.23.84,7.13-.13,2.91-.1,5.68.09,8.3-1.54-.27-3.05-.35-4.52-.22-1.47.13-2.98.06-4.52-.22-.26-.01-.45-.12-.58-.33-.13,0-.2-.11-.2-.31-.26-.01-.75-.03-1.38.34-.74-.04-1.48-.09-2.21-.13-2.98.09-3.3.16-5.84.02-2.51-.14-7.15-.48-10.18-.49-.26-.01-.51-.02-.77-.03-3.85-.16-7.7-.31-11.55-.45-.18-2.58-.22-5.17-.14-7.75.08-2.57.04-4.76-.12-6.56-.26-5.9-.52-11.81-.78-17.71-.83-.12.7-.66-.07-.89-.02-.99-.39-1.55-.74-2.01-.6-.79-1.45.67-1.47-.33-.4-1-.72-1.06-.96-.17-.24.89-.5.93-.77.13-.14-.79.05-1.19.56-1.18.11-.59-.08-.75-.59-.46-.51.28-.64-.06-.4-1.05-.77-.02-1.08.47-.93,1.46-1.03-.42-2.34-.6-3.94-.54-1.6.06-2.44,1.08-2.53,3.06-.25.19-.41.14-.48-.16-.07-.3-.23-.45-.49-.46-.25.39-.5.68-.75.87-.26.19-.31.59-.17,1.18-.64-.21-1.12-.12-1.43.26-.31.39-.79.47-1.43.26-.47,2.36-.52,5.37-.14,9.04.38,3.67.46,6.79.25,9.34-.12.59-.36.98-.75,1.16.4.81.64,2.05.73,3.73.09,1.68.15,3.46.18,5.34.03,1.88.03,3.81,0,5.78-.03,1.98.03,3.76.18,5.34,2.48,2.26,5.14,4.24,8,5.93,2.85,1.7,5.77,3.3,8.76,4.82,0,.4.07.65.21.75.13.11.2.36.21.75.5-.38,1.08-.45,1.73-.23,4.81,3,9.69,5.91,14.64,8.75,4.94,2.85,9.71,6,14.29,9.48.02.9.04,1.8.06,2.71.39.23.62.14.67-.26.05-.4.08-.79.07-1.2,1.17.67,2.19,1.59,3.05,2.74.86,1.16,1.82,2.27,2.87,3.34.7,1.05,1.4,2.09,2.11,3.14,1.07,2.31,1.61,4.44,2.21,8.3-.58-.04-1.16-.08-1.74-.12-.1,1.2-.02,2.11.26,2.73.27.62.48,1.34.63,2.15.65.45,1.07.48,1.26.09.19-.39.47-.37.87.06-.24.79-.25,1.84-.02,3.16.22,1.33.01,1.86-.64,1.61-.11,1,.04,1.56.42,1.69.39.13.59.5.61,1.1.62,10.1,2.29,19.2.79,26.72.14.62-.64,1.89-.37,2.31.27.43.41,1.04.43,1.84-.38.37-.73.64-1.05.82-.32.18-.54.56-.66,1.15.35.32.7.64,1.05.95ZM897.17,468.65,990.84,494.57,1029.5,562.96c-1.23-.2-2.47-.4-3.7-.59M1011.97,560.22c-.55-.9-.56-1.53-.06-1.87.5-.33.61-1.15.32-2.43-.65.11-.95.58-.93,1.41.02.83.05,1.77.08,2.8-1.31-.61-2.81-.83-4.49-.67-1.68.16-2.73-.5-3.17-2.01-.26-.04-.38.2-.36.72.01.52-.11.76-.37.72-9.04-1.31-18.09-2.55-27.15-3.72-10.58-7.06-17.13-19.51-19.65-37.55-.61-24.71-1.22-49.43-1.83-74.15-.03-1.22.12-1.4.47-.57.34.83.64,1.26.9,1.28.1-1.21-.05-1.92-.44-2.16-.39-.23-.73-.86-1.01-1.9-.52-21.07-1.04-42.15-1.56-63.22-1.04-.66-2.3-.91-3.76-.78-1.46.14-2.91.07-4.32-.2,1.18-9.63,2.45-19.12,3.81-28.48,1.36-9.35,2.69-18.88,3.97-28.57,1.15.23,2.39.26,3.72.09,1.33-.16,2.45.06,3.36.7,1.13-.58,2.58-.7,4.38-.35,1.79.36,3.24.14,4.37-.65,1.33.04,2.67.07,4.01.11.64.22,1.34.24,2.1.06,1.66.25,3.32.5,4.98.75,2.15-.35,4.37-.49,6.66-.42,2.29.07,4.58.14,6.87.21,13.67.42,27.34.89,41.01,1.41,2.72,1.58,5.04,3.68,6.97,6.3,1.92,2.62,3.82,5.36,5.69,8.2.57,2.15,1.24,4.04,2,5.67.75,1.63,1.29,3.62,1.62,5.98.69,1.74,1.2,3.84,1.54,6.3.34,2.47.67,4.88,1,7.24-.65-.47-1.18-.87-1.57-1.21-.39-.34-.92-.74-1.57-1.21-.21,1.47-.11,2.54.29,3.2.4.66.62,1.53.66,2.59-.52-.24-.84-.27-.96-.06-.12.21-.2.52-.25.94-.05.42-.1.84-.15,1.26-.05.42-.26.62-.65.6-.86,1-.83,2.06.1,3.18.89.06,1.38-.54,1.47-1.81.08-1.27.31-2.31.66-3.14.65.47,1.03.39,1.14-.24.1-.63.28-1.26.51-1.88.36,3.21.59,6.42.7,9.61.1,3.2.22,6.61.33,10.23.22,6.82.44,13.63.67,20.45-13.82-1.22-27.64-2.34-41.47-3.37-.16-5.41-.29-10.66-.38-15.77-.09-5.1-.28-10.36-.57-15.78-.03-1.04.02-1.51.15-1.39.13.11.45.18.96.21-.57-1.91-1.47-3.2-2.7-3.9-1.23-.69-2.61-1.13-4.15-1.32-1.53-.18-3.13-.21-4.79-.1-1.65.12-3.25.04-4.79-.25-.37.4-.84.63-1.42.7-.57.08-.98.31-1.22.71.34,11.87.68,23.74,1.02,35.61.19,6.5.37,13,.56,19.51.02.82-.03,1.13-.17.91-.13-.21-.33-.33-.59-.35.31,1.88.59,3.75.84,5.63.24,1.87.34,4.04.28,6.51-.53-.46-.93-.9-1.19-1.33-.27-.43-.67-.77-1.19-1.02-.38-.03-.41.23-.07.77.34.54.39,1.22.15,2.02-.39-.23-.59-.67-.61-1.28-.02-.62-.34-.85-.98-.7.05,1.65.52,2.46,1.42,2.43.9-.03,1.61.19,2.13.64.65,9.32,1.05,19.04,1.22,29.13.16,10.1.44,20.11.85,30.02-.53-.47-.86-.71-.99-.73-.1,1.02.01,1.6.34,1.73.33.14.57.53.71,1.16.2,6.91.39,13.83.59,20.74.16,1.05.56,1.61,1.21,1.69.65.08,1.17.35,1.57.81,2.58-.09,5.33.32,8.26,1.21,2.93.9,5.27.64,7.04-.79.15-3.5.1-7.45-.16-11.84-.26-4.39-.46-8.77-.58-13.14,1.43.59,2.98.83,4.65.72,1.67-.11,2.9.41,3.71,1.55.52.27.77.1.75-.53-.02-.63.3-.79.95-.51.64-.12.97.28,1,1.22.03.94.31,1.55.83,1.83.13.02.17-.5.14-1.55.41.68.8.88,1.17.62.38-.26.55-.82.53-1.66,1.17.36,2.62.6,4.36.72,1.74.12,3.14.88,4.21,2.28,1.02-.28,1.58-.84,1.68-1.67.41.9.78,1.26,1.09,1.09.32-.16.73-.43,1.23-.78,2,.27,3.99.54,5.99.81.29.89.38,1.85.29,2.89.25.03.47-.36.63-1.18.16-.82.33-.59.5.7.39.05.63-.17.75-.69.11-.51.29-.96.54-1.35,1.41.2,2.77.44,4.06.72,1.29.29,2.22,1.11,2.78,2.46-.07,1.69.01,3.34.26,4.96.25,1.63.26,3.06.04,4.3-.11.62-.26.97-.45,1.05-.19.08-.28.44-.26,1.07.02.64.29,1,.81,1.07-.12.41-.44.36-.97-.14-.25.18-.37.47-.36.9.01.43.03.85.04,1.28-.39-.06-.57.13-.56.55.01.43-.04.84-.15,1.25.15.66.51.87,1.08.64.57-.23.78-.57.64-1.02.84,6.28,1,12.23.48,17.86-.53,5.63-1.37,10.36-2.53,14.18-.4-.28-.61-1.05-.65-2.33-.35,1-.42,2.04-.19,3.14.23,1.1-.03,2.11-.77,3.03-1.31-.64-2.44-1.72-3.39-3.25-.95-1.52-2-2.17-3.15-1.94-.29.9-.59,1.8-.88,2.69-.11.62-.03,1.05.24,1.3.26.25.28.79.05,1.59.15.87.46,1.34.91,1.41.45.08.75.44.91,1.1.62-.74.66-1.52.12-2.35-.54-.83-.83-1.76-.86-2.83.41.7.91,1.25,1.5,1.67.59.42,1.03,1.18,1.33,2.28.23-1.01.44-1.4.64-1.16.2.25.63.53,1.28.85-.46,1.82-1.12,3.29-1.98,4.41-.87,1.12-1.8,2.22-2.79,3.31-.38.36-.63.36-.77.03-.14-.34-.34-.64-.61-.89.02.74.05,1.48.07,2.22-.89.48-1.71.97-2.47,1.47-.76.5-1.65.98-2.67,1.44-1.43-.45-2.92-.7-4.47-.75-1.55-.05-2.67-.76-3.36-2.12-.24.59-.27,1.51.12,1.58-7.16-1.17-14.32-2.3-21.5-3.38ZM1160.54,481.74c-3.05,2.36-4.53,1.81-4.75.87-.22-.94-.47-1.66-.74-2.16-.59,1.25-1.18,2.39-1.78,3.41-.6,1.03-.79,2.79-.57,5.3,1.05,1.09,2.07,1.21,3.06.37.98-.84,2.07-.59,3.26.75,2.97,12.28,5.75,24.82,8.35,37.62,2.6,12.79,5.39,25.57,8.37,38.34,1.48,6.27,2.91,12.61,4.27,19,1.36,6.39,2.72,12.62,4.07,18.7.75,3.4,1.43,6.73,2.05,9.99.62,3.25,1.3,6.59,2.06,10.02.61,3.15,1.26,6.31,1.94,9.49.68,3.17,1.45,6.27,2.31,9.28-.75.23-1.56-.35-2.43-1.76-.87-1.41-1.69-2.45-2.48-3.13-1.04-.77-1.89-1.76-2.56-2.98-.68-1.23-1.53-2.21-2.57-2.97-1.72-2.09-3.37-4.15-4.96-6.19-1.59-2.04-3.3-3.87-5.13-5.5-.27-.53-.51-1.16-.73-1.9-.21-.73-.28-1.66-.19-2.77-.88.21-1.61.02-2.2-.59-.59-.61-1.33-.93-2.22-.93-3.85-4.87-7.75-9.53-11.71-14-3.96-4.47-7.93-8.96-11.9-13.45,1.01-.21,1.26-1.04.77-2.49-.5-1.45-.65-3.04-.45-4.78-.4-.54-.68-1.27-.84-2.2-.16-.92-.5-1.67-1.03-2.24-.64-.15-1.15-.14-1.53-.01-.37.14-.48.78-.31,1.93-.81-1.29-1.38-3.03-1.71-5.21-.34-2.18-.72-4.21-1.17-6.08-.32-1.84-.73-3.65-1.24-5.42-.51-1.77-.99-3.59-1.43-5.46-.37-3.18-.92-6.17-1.65-8.98-.74-2.81-1.41-5.6-2.01-8.37-1.69-8.29-3.44-16.69-5.27-25.19-1.82-8.49-3.65-17.07-5.48-25.73-2.37-.38-4.74-.76-7.11-1.13.98,28.21,1.95,56.42,2.93,84.61.15,3.08.31,6.16.46,9.24-3.71-.79-7.43-1.57-11.15-2.34-.91-.62-1.62-1.42-2.1-2.39-.48-.96-1.18-1.76-2.09-2.38-.52-.32-.94-.4-1.26-.26-.31.15-.63.42-.93.78-.31.38-.59.64-.83.8-.25.17-.58,0-.98-.52-1.13.52-2.27,1.05-3.4,1.57-6.32-1.28-12.64-2.52-18.98-3.73-.36-3.05-.61-6.67-.75-10.86-.14-4.18-.13-7.76.03-10.72-.02-.64.03-.9.17-.77.13.14.33.38.6.75.27.37.53.69.8.94.27.26.51.09.75-.51.49-.55.54-1.13.13-1.74-.41-.6-.62-1.34-.65-2.2.09-1.05-.15-1.63-.73-1.73-.58-.1-1.01-.39-1.28-.86-.88-11.04-1.38-22.27-1.5-33.72-.12-11.44-.38-22.97-.76-34.57-.02-.65-.11-1.24-.25-1.8-.15-.55-.24-1.26-.26-2.12-.43-5.19-.6-10.39-.52-15.63.08-5.23.04-10.42-.13-15.58-.31-9.45-.75-18.76-1.31-27.91-.56-9.15-.74-18.32-.53-27.52-1.3-.75-2.8-1.08-4.52-1-1.72.08-3.34-.05-4.88-.38,1.2-9.92,2.37-19.77,3.51-29.54,1.14-9.76,2.31-19.56,3.5-29.38-.02-.54-.04-1.07-.05-1.61,19.71.87,39.42,1.87,59.13,3,.4.69.75,1.49,1.04,2.4.28.91.69,1.71,1.23,2.42.8.22,1.6.43,2.4.65.3-.32.58-.69.81-1.12.64.04,1.16.41,1.56,1.1.4.69.79.72,1.14.07.89.06,1.37-.64,1.45-2.1.08-1.45.43-2.38,1.05-2.79,3.05.18,6.1.37,9.15.56,1.02.06,2.06.08,3.14.03,1.07-.05,1.94.18,2.59.67.17,1.37.05,2.21-.39,2.52-.44.31-.57,1.04-.4,2.18.92.85,1.84,1.71,2.75,2.57.09-1.13.31-2.02.67-2.68.36-.66.71-1.32,1.07-1.97,1.42.55,2.53,1.59,3.34,3.13.82,1.54,1.82,2.92,3,4.15.7,1.88,1.46,3.53,2.27,4.97.81,1.43,1.51,3.32,2.1,5.66.82,1.67,1.43,3.67,1.83,5.99.4,2.33.95,4.43,1.65,6.33.06,1.61.17,3.11.35,4.5.18,1.39.41,2.79.72,4.19.16,11.7.59,24.12,1.3,37.25.71,13.14,1.14,25.34,1.28,36.56.12,17.87-2.74,30.3-8.57,37.21-1.01.73-2.02,1.46-3.03,2.19ZM1129.02,378.86c-.06-1.79-.13-3.57-.19-5.36-.95-1.64-2.22-2.75-3.83-3.34-1.61-.59-3.31-.96-5.09-1.11-1.79-.15-3.66-.2-5.63-.15-1.97.06-3.79-.2-5.45-.78.78,22.61,1.57,45.21,2.35,67.81,1.65,0,3.25.14,4.78.44,1.54.31,3.08.67,4.62,1.09-1.12.74-2.36,1.63-.54,2.26,1.82.64,1-.71.99-.71-.33-2.03,1.03-.92,1.27-1.33,1.52-.24,3.07-.26,4.67-.05,1.6.21,2.81-.51,3.64-2.18.11-7.77-.06-16.07-.49-24.92-.44-8.84-.74-17.49-.91-25.98.4.49-.64-.9-.13-.74.51.16.95-.08,1.31-.71-.31-1.59-.75-1.77-1.28-2.49-.03-.59-.06-1.18-.09-1.76ZM1226.31,607.46c.29,1.03-3.96-2.08-3.32-1.66.64.42-1.58-1.03-1.65.59-7.86-2.28-15.73-4.49-23.61-6.65-.35-2.63-.84-4.04-1.47-4.21-.62.3-.76.78-.42,1.44.34.67.52,1.47.56,2.4-1.02-.28-2.04-.55-3.05-.83-.74-21.37-1.49-42.75-2.23-64.13.26.29.49.58.69.84.2.28.42.44.68.5.19-1.81.05-3.05-.42-3.73-.47-.68-.84-1.52-1.13-2.5-.04-1.28-.09-2.56-.13-3.83.09-.9-.16-3.16.03-3.24-.2-4.5-.41-9-.61-13.5-.21-6.16-.43-12.32-.64-18.48.24-.41.68-.44,1.32-.09-.43-1.47-.62-2.37-.57-2.71.05-.34.18-1.18.39-2.53-.65-.35-.89,0-.72,1.08.16,1.07-.02,1.33-.54.77-.85-24.3-1.69-48.6-2.54-72.9.57.08,1.14.15,1.71.23.08-1.38-.08-2.38-.48-3.02-.4-.63-.56-1.52-.47-2.67-.37.42-.53.97-.51,1.67-.57-1.92-.81-4.21-.71-6.87.1-2.64.03-5.26-.18-7.84-1.29-.85-2.8-1.26-4.51-1.24-1.71.03-3.26-.16-4.67-.56.19-1.81.37-3.75.56-5.8.18-2.05.56-3.74,1.15-5.05-.04-1.15-.19-1.75-.44-1.78.97-8.65,1.89-17.33,2.8-26.04.9-8.71,1.83-17.44,2.79-26.19,13.66,1,27.31,2.08,40.96,3.25.16,1.21.33,2.24.48,3.09.15.86.57-.59,1.22-.05.42.15.84.3,1.26.45.09-1.19-.06-1.8-.44-1.84-.38-.03-.52-.52-.43-1.48,13.58,1.17,27.16,2.44,40.73,3.8.28.77.35,2.14.22,4.1-.13,1.97-.1,3.94.09,5.94-.32-.03-.63-.07-.95-.1-.09,1.23.06,1.99.45,2.27.39.29.6,1.05.64,2.29-.25-.03-.42-.35-.5-.98-.08-.62-.37-.84-.87-.66.04,1.25.25,2.01.64,2.3.38.29.66.94.82,1.94.33,10.54.66,21.09.99,31.63-.98,1.1-2.39,1.33-4.23.7-1.85-.62-3.53-.91-5.04-.88-.02-.49.07-.78.25-.88.19-.1.27-.39.26-.89-.02-.49-.12-.69-.3-.59-.18.1-.28-.1-.3-.59-.76-.1-1.19.27-1.29,1.11-.1.85-.21,1.39-.33,1.61-.74.39-1.14-.27-1.2-1.99-.25.21-.43.56-.53,1.03-.11.48-.36.68-.74.63-1.77,0-3.67-.18-5.69-.58-2.03-.39-3.68-.67-4.95-.83-.49.43-.78.32-.86-.29-.09-.61-.25-.94-.51-.97-.52-.31-.8-.23-.85.25-.05.48-.2.7-.45.67-5.32-.69-10.65-1.36-15.98-2.01-.06-1.67-.41-2.67-1.05-2.99-.38-.05-.56.17-.55.65.02.48.22.86.61,1.15.27.51.41,1.01.43,1.48.02.48.21.62.58.43.17,5.16.35,10.32.52,15.47.29,1.23.31,1.83.06,1.8.03,1.08.07,2.16.11,3.24.23,6.96.47,13.91.7,20.87.18,5.28.35,10.55.53,15.83.15.74.45,1.09.88,1.04.44-.04.73.19.87.68-.07,1.66.1,2.94.51,3.85.41.91.7,1.98.86,3.2.21-1.15.3-2.34.26-3.54-.04-1.2-.15-2.54-.32-4,1.53.5,3.24.79,5.13.87,1.89.09,3.79.41,5.7.98,4.68.84,9.35,1.69,14.02,2.57,1.62.02,3.02.23,4.86.81,1.84.58,3.58.91,5.22.96.05,1.48.09,2.96.14,4.44.03.57.07,1.14.1,1.71.25.05.16.62.21,2.22.05,1.61-.19,2.11-.7,1.52.69,1.85.98,4.24.89,7.17-.09,2.93-.04,5.77.18,8.5-.63-.13-.94.05-.92.54-.36.66-.34,1.1.04,1.3.38.21.53.91.44,2.12-.47.88-.75,2.05-.83,3.5-.08,1.45-.64,1.83-1.66,1.12-.1.96.12,1.86.65,2.71.53.85.55,1.46.06,1.85.02.5.34.8.97.94.32,2.03.17,3.35-.44,3.94.4.58.67,1.5.84,2.76.16,1.27.68,1.75,1.55,1.45.11,3.33.21,6.67.32,10-2.79-.89-5.31-1.53-7.58-1.93-2.27-.39-4.86-.92-7.76-1.56.05-2.41.03-.93-.64-2.04-.06.13-.11.27-.17.4.03.98-.21,1.35-.72,1.11-.51-.23-1.01-.28-1.51-.15-.19-.04-.38-.08-.57-.13-1.53-.82-3.18-1.3-4.94-1.45-1.76-.14-3.72-.45-5.87-.91-.14-.51-.29-.96-.42-1.35-.14-.39-.28-.83-.42-1.35-.25-.05-.34.29-.25,1.02.08.74,0,1.2-.24,1.39-.64-.38-1.24-.56-1.81-.57-.57,0-.2,0-1.75-.41-1.1-.2-2.19-.41-3.29-.61.73,21.86,1.47,43.72,2.2,65.56.64.41,1.04.98,1.19,1.74.15.75,3.91-.05,4.19.74.23.36.47.72.7,1.08.61-.31,1.53,1.55.92.43-.6-1.11-.65-1.6-.14-1.47,3.48.92,6.95,1.86,10.42,2.81,2.02.79,4.14,1.31,6.33,1.56,2.19.24,4.19.98,5.97,2.21.01.49-.16.68-.54.58.27.57.39,1.38.36,2.47.6.17,1.19.34,1.79.51-.15-.89-.37-1.74-.64-2.55.1-.7.26-.59.48.32.21.92.46,1.53.71,1.84.49-.1.55-.45.16-1.05-.4-.59-.48-1.23-.25-1.89,2.33.66,4.66,1.32,6.99,1.99.27.57.51,1.19.72,1.86.21.67.56,1.08,1.07,1.23-.21,1.41-.06,2.25.45,2.52.5.27.72,1.01.63,2.2.26.32.5.03.72-.89.64.68.91,2.11.79,4.28-.12,2.18-.09,4.02.08,5.55-.19-.06-.38-.11-.57-.17.17,1.52.21,2.89.13,4.08,0,.25.2.43.58.55.21,2.76.3,5.55.26,8.36-.04,2.81.04,5.1.22,6.87.24,5.1.48,10.2.72,15.31-2.4-.79-4.81-1.58-7.21-2.36-10.68-3.47-21.39-6.83-32.14-10.07-1.77-.53-3.54-1.06-5.31-1.59-.44-2.03-2.56,0-2.2-1.76.35-1.71-1.61,1.19-2.65.18-.4-.19-.8-.39-1.2-.58ZM1377.49,359.69c.03,1.35-.27,1.97-.9,1.87-.63-.1-1.06.37-1.29,1.4-.19,2.94.05,5.12.71,6.58,1.15.73,1.92.52,2.34-.63.41-1.15.6-2.67.56-4.57,1.28,1.29,2.24,3.2,2.86,5.74.62,2.54,1.33,4.96,2.13,7.26.02,1.09-.15,1.8-.52,2.15-.37.34-.74.68-1.11,1.02-.37.34-.67.7-.92,1.06-.24.37-.23.98.04,1.84.66,1.47,1.32,1.79,1.99.96.67-.83,1.2-.94,1.59-.32.68,2.29,1.17,5.16,1.5,8.62.32,3.45.64,6.71.95,9.75,1.79,85.34,3.59,170.63,5.4,255.87,1.22,5.91,2.61,11.69,4.18,17.38,1.57,5.68,2.96,11.52,4.17,17.49,1.02,2.63,1.86,5.46,2.52,8.49.66,3.02,1.33,6.05,1.99,9.08.66,2.76,1.34,5.47,2.06,8.13.71,2.65,1.4,5.64,2.07,8.98-2.09-2.39-4.09-5.12-6.02-8.21-1.93-3.1-3.94-5.94-6.05-8.54-1.87-3.04-3.86-5.77-5.97-8.2-2.11-2.44-3.99-5.5-5.64-9.17-3.09-2.98-5.93-6.36-8.5-10.12-2.58-3.77-5.24-7.42-8-10.95-2.76-3.52-5.5-7.02-8.2-10.48-2.71-3.45-5.33-6.98-7.87-10.58.21-1.48.12-2.76-.28-3.83-.39-1.06-.62-2.65-.67-4.76-.05-1.84.13-3.09.55-3.71.41-.63.6-1.73.56-3.32.49.18.84.58,1.04,1.18.2.6.37,1.32.51,2.16.14.84.29,1.62.43,2.32.14.71.4,1.27.78,1.67.44-1.92.73-3.71.88-5.36.14-1.65-.12-3.65-.8-6-.62-.23-1.04-.13-1.28.3-.24.44-.44.96-.61,1.54-.17.59-.37,1.1-.6,1.54-.24.44-.66.53-1.28.3-.73-14.37-1.18-28.56-1.36-42.6-.17-14.04-.57-28.36-1.18-42.94-6.85-2.08-13.71-4.11-20.58-6.1.38,14,.76,28,1.15,41.99.18,2.12-.03,3.26-.65,3.45-.61.19-.89,1.19-.84,3,.02.77.13,1.33.32,1.65.19.32.41.52.66.6.25.08.47.29.66.6.2.32.24.85.14,1.59.43,15.55.85,31.1,1.27,46.64-13.4-5-26.86-9.82-40.38-14.44-1.26-21.02-1.95-41.62-2.07-61.92-.12-20.29-.73-40.17-1.82-59.57-.17-1.28-.23-2.42-.2-3.4.03-.98.03-2.11,0-3.36,0-.25.05-.36.18-.33.13.03.12-.1-.01-.38-.26-.3-.41-1.21-.46-2.71-.05-1.5-.09-3.07-.14-4.7-.05-1.62-.07-3.31-.06-5.05,0-1.74,0-3.11-.03-4.11-.75-24.66-1.5-49.33-2.25-74.01-2.91-.48-5.81-.95-8.72-1.41-.3-1.28-.27-2.58.07-3.89.34-1.31.41-2.85.24-4.61.21-1.2.39-2.6.53-4.19.14-1.58.32-2.99.53-4.2.16-2.95.42-5.76.78-8.45.36-2.68.61-5.63.77-8.84.84-5.6,1.45-11.31,1.84-17.12.39-5.81,1.01-11.41,1.86-16.82-.03-1,.14-1.73.5-2.19,28.65,3.05,57.25,6.56,85.79,10.65,1.66,1.31,3.09,2.98,4.26,5.03,1.18,2.04,2.48,4.12,3.91,6.21ZM1338.08,396.71c-2.14-.37-4.32-.8-6.53-1.3-2.21-.5-3.93-.33-5.16.49-.36.46-.57,1.07-.61,1.84-.04.76-.25,1.25-.62,1.44-.48.95-.39,1.67.25,2.17.64.5.79,1.63.47,3.37.71,26.21,1.43,52.4,2.14,78.6,6.9,1.65,13.79,3.33,20.67,5.06-.35-13.98-.71-27.96-1.06-41.94.1-.77.37-1.43.79-2,.42-.56.84-1.13,1.27-1.7.42-.56.72-1.16.89-1.79.17-.61.11-1.61-.17-3-.15-1.08-.36-1.65-.6-1.7-.25-.05-.53.02-.84.22-.31.2-.62.27-.93.2-.31-.07-.55-.51-.69-1.32-.3-11.74-.59-23.48-.89-35.22-1.04-1.5-2.29-2.37-3.74-2.63-1.45-.25-2.99-.52-4.63-.8ZM1527.48,754.07c.41.23.82.47,1.23.7M1478.18,653.75c.86,1.84-6.74-6.4-6.35-3.6-.71,1.43-1.55,1.64-2.52.62-.98-1.01-1.94-1.73-2.91-2.16-1.45-.64-2.93-1-4.43-1.08-1.51-.08-2.93-.99-4.28-2.72-.36-.16-.52-.44-.46-.84.06-.41.17-.85.34-1.36.18-.5.29-1.02.34-1.57.05-.55-.17-1.07-.65-1.57-.62-.84-1.1-.61-1.44.67-.12.53-.04,1.41.21,2.66.26,1.26.08,1.61-.53,1.06-1.19-8.52-2.39-16.88-3.59-25.07-1.19-8.2-3.95-28.72-5.05-37.36-.37-.03-.74-.06-1.11-.1.11,7.43.4,21.22.69,29.28.29,8.07.37,15.48.23,22.24-.23,1.04-.77,1.45-1.62,1.24-.85-.21.31,2.32-.29,2.63-.01.44-.02.88-.04,1.32,2.06-2.84,1.46,3.53,2.05,2.94.71,7.68,1.1,15.87,1.16,24.55.06,8.69.28,17.23.63,25.62-2.66-1.53-5.34-2.78-8.06-3.76-2.71-.97-5.29-2.44-7.73-4.39-.61-.55-.92-1.47-.94-2.74-.54-.38-1.07-.76-1.61-1.14,1.01,2.69-1.3-.11-.89,3.15-6.73-3.05-13.47-6.05-20.24-8.99-.16-8.29-.32-16.58-.48-24.86.22-1.28.51-1.56.89-.87.37.71.74.86,1.1.45.21-1.56.01-2.4-.59-2.51-.61-.11-.98-.47-1.11-1.08-1.04-35.52-1.85-71.14-2.41-106.9-.57-35.76-1.25-71.51-2.05-107.22-2.94-.66-5.88-1.31-8.82-1.96,1.25-12.3,2.47-24.65,3.66-37.06,1.19-12.4,2.42-24.98,3.69-37.75,14.55,2.33,29.08,4.83,43.59,7.52,3.73,25.56,7.46,50.99,11.18,76.27,3.72,25.28,7.37,51.13,10.97,77.54.61-.67.9-1.95.88-3.85-.02-1.9.21-3.49.69-4.79.23-1.38.4-2.85.5-4.42.1-1.57.33-3.02.69-4.37.43-5.98,1.23-11.85,2.4-17.63.55-6.55,1.23-12.7,2.04-18.47.8-5.77,1.61-11.76,2.42-18,1.61-12.46,3.24-24.69,4.88-36.66,1.63-11.98,3.21-24.46,4.73-37.45,14.38,3.03,28.73,6.26,43.04,9.71.1,71.26.2,142.51.3,213.76-.24.52-.84.26-1.81-.76-.96-1.02-1.5-.78-1.62.69-.23,3.57.13,5.86,1.09,6.87.96,1.02,1.74,2.28,2.35,3.76.06,42.75.12,85.5.18,128.25.95,7.87,1.89,15.53,2.84,22.98.94,7.45,1.88,15.13,2.82,23.08.17,2.26.35,4.52.53,6.78.58,1.89,1.02,4.23,1.31,7.03.29,2.79.61,5.54.96,8.22-.93-.89-1.59-1.99-2-3.31-.41-1.34-1.02-2.4-1.83-3.2-.35-1.44-.82-2.65-1.4-3.61-1.45-2.88-2.91-5.74-4.37-8.6-1.64-2.51-3.19-5.32-4.66-8.46-1.47-3.15-3.03-6.25-4.67-9.31-1.54-3-3.07-5.84-4.6-8.51-1.54-2.67-3.13-5.53-4.79-8.54-3.09-5.92-6.18-11.63-9.29-17.15-3.11-5.52-6.16-11.12-9.17-16.79-.25-1.9-.14-2.88.33-2.93.47-.05.64-1.01.51-2.85-.01-1.78-.09-3.44-.21-4.99-.13-1.54-.32-3.11-.57-4.72.1-17.69.21-34.94.33-51.76.12-16.82.17-34.12.16-51.9-1.61,10.61-3.07,21.45-4.36,32.55-1.29,11.09-2.73,21.86-4.32,32.29-1.08-.79-2.07-1.32-2.98-1.58-.9-.26-1.66-.82-2.26-1.69-.6.32-.84-.09-.73-1.2.11-1.12-.54.57-.67-.36-.07.24-.14.48-.21.72ZM807.22,430.13c.57,2.42.86,3.71.86,3.87-.11-.11-.22-.22-.34-.33,0,.11,0,.21,0,.32.11.11.23.22.34.33,0-.21.05-.32.16-.31,0,.38.29,1.56.86,3.56-.22,0-.44-.01-.65-.02.01,1.39.46,2.15,1.33,2.29,0,.22.06.54.18.97,0,.32,0,.64.01.96.33.07,1.12,2.88,2.39,8.43-11.46-.45-22.92-.72-34.38-.83-4.33-.14-8.66-.26-12.99-.37,0,.11,0,.21,0,.32-2.9,0-5.81.02-8.72.05-.06-.43-.29.01-.35-.41-.06,0,.07-.86.01-.87,0-.11,0-.21,0-.32,0-.27-.27-.8-.81-1.59.11,0,.16-.11.16-.32-.05,0-.11,0-.16,0,.05-.21.11-.43.16-.64-.11-.42-.22-.85-.32-1.27-.16-.64-.33-1.27-.49-1.91-.65-2.6-.97-3.99-.97-4.15.43,0,.65-.22.66-.65,0-.11,0-.21,0-.32-.05,0-.11,0-.16,0-.33,0-.49.32-.5.96-.06,0-.11,0-.17,0,0-.37-.26-1.54-.81-3.51.11-.37.17-.8.17-1.28-.52,0-1-1.38-1.46-4.14-.19-.05-.57-1.54-1.13-4.46,8.61-.11,17.22-.14,25.82-.08.11,0,.17.11.17.32.11-.11.22-.21.33-.32,1.85.01,3.7.03,5.55.05,5.72-.02,11.44-.03,17.17-.02,0,.11,2.73,0,2.73.1,1.53.04.32.3,1.85.34.16-.21.32-.42.48-.63,0,.21,0,.43,0,.64.55.01,1.09.03,1.64.05.34,1.56.52,2.42.52,2.58.05,0,.11,0,.16,0,.23.86.46,1.72.69,2.59ZM755.45,447.46c.05,0,.11,0,.16,0M580.61,436.75c.49,2.47.74,3.79.74,3.95-.11-.1-.22-.21-.33-.31,0,.11,0,.22,0,.33.11.1.22.21.33.31,0-.22.06-.33.17-.34,0,.39.24,1.59.74,3.62-.22.01-.43.03-.65.04-.03,1.45.39,2.19,1.26,2.26,0,.22.05.55.15.99,0,.33-.01.66-.02,1,.33.04,1.03,2.88,2.12,8.53-11.42.66-22.83,1.48-34.23,2.49-4.31.28-8.61.57-12.92.88,0,.11,0,.23-.01.34-2.89.29-5.78.59-8.67.9-.04-.45-.29.04-.33-.41-.06,0,.1-.93.04-.92,0-.11,0-.23.01-.34,0-.28-.24-.82-.76-1.62.11-.01.16-.13.17-.36-.05,0-.11.01-.16.02.06-.23.12-.47.18-.7-.09-.44-.19-.89-.28-1.33-.14-.66-.29-1.33-.43-1.99-.57-2.72-.84-4.16-.84-4.33.43-.04.66-.29.67-.75,0-.11,0-.23.01-.34-.05,0-.11.01-.16.02-.33.04-.5.39-.52,1.07-.06,0-.11.01-.17.02.01-.4-.22-1.62-.7-3.67.12-.41.19-.87.21-1.38-.51.05-.96-1.38-1.33-4.29-.19-.04-.52-1.59-.99-4.67,8.57-.85,17.14-1.62,25.71-2.29.11,0,.16.1.16.33.11-.12.22-.24.33-.37,1.84-.14,3.69-.29,5.53-.42,5.7-.51,11.41-1.01,17.11-1.48,0,.11,2.72-.24,2.72-.13,1.52-.09.31.28,1.83.2.17-.23.33-.46.5-.69,0,.22,0,.44-.01.66.54-.03,1.09-.06,1.63-.09.29,1.59.44,2.47.44,2.64.05,0,.11,0,.16,0,.2.88.4,1.75.6,2.63ZM528.52,459.77c.05,0,.11-.01.16-.02M1572.55,789.19c0,6.06-4.75,10.81-10.94,10.81s-11.01-4.75-11.01-10.81,4.88-10.68,11.01-10.68,10.94,4.76,10.94,10.68ZM1553.33,789.19c0,4.76,3.52,8.53,8.34,8.53s8.14-3.78,8.14-8.46-3.45-8.6-8.21-8.6-8.27,3.84-8.27,8.53ZM1559.91,794.79h-2.47v-10.68c.98-.2,2.34-.33,4.11-.33,2.02,0,2.93.33,3.71.78.59.46,1.04,1.3,1.04,2.35,0,1.17-.91,2.08-2.22,2.47v.13c1.04.39,1.63,1.17,1.95,2.6.33,1.63.52,2.28.78,2.67h-2.67c-.33-.39-.52-1.37-.85-2.61-.2-1.17-.85-1.69-2.21-1.69h-1.17v4.3ZM1559.98,788.73h1.17c1.37,0,2.48-.45,2.48-1.56,0-.98-.72-1.63-2.28-1.63-.65,0-1.11.06-1.37.13v3.06ZM451.28,691.72v-.26c0-25.72,20.73-46.58,48.38-46.58s48.12,20.6,48.12,46.33v.26c0,25.72-20.73,46.58-48.38,46.58s-48.12-20.61-48.12-46.33ZM522.31,691.72v-.26c0-13.05-9.21-24.19-22.91-24.19s-22.78,11.01-22.78,23.93v.26c0,12.93,9.34,24.19,23.04,24.19s22.65-11.01,22.65-23.93ZM559.59,646.67h42.36c13.69,0,23.16,3.58,29.18,9.6,5.25,5.25,7.93,12.03,7.93,20.86v.26c0,13.82-7.29,22.91-18.43,27.64l21.37,31.23h-28.54l-18.05-27.13h-11.01v27.13h-24.83v-89.59ZM600.92,689.68c8.32,0,13.31-4.1,13.31-10.62v-.26c0-7.17-5.25-10.75-13.44-10.75h-16.38v21.63h16.51ZM651.36,646.67h24.83v67.83h43.39v21.76h-68.21v-89.59ZM762.41,646.03h23.93l38.14,90.23h-26.62l-6.4-16.13h-34.68l-6.4,16.13h-25.98l38.01-90.23ZM784.17,700.81l-9.98-25.34-10.11,25.34h20.09ZM831.64,646.67h23.16l36.86,47.35v-47.35h24.57v89.59h-21.63l-38.39-49.14v49.14h-24.57v-89.59ZM932.53,646.67h34.68c31.87,0,50.42,18.43,50.42,44.28v.26c0,25.85-18.81,45.05-50.94,45.05h-34.17v-89.59ZM957.36,668.56v45.69h10.11c14.97,0,24.83-8.19,24.83-22.65v-.26c0-14.33-9.85-22.78-24.83-22.78h-10.11ZM1025.36,691.72v-.26c0-25.72,20.73-46.58,48.38-46.58s48.12,20.6,48.12,46.33v.26c0,25.72-20.73,46.58-48.38,46.58s-48.12-20.61-48.12-46.33ZM1096.39,691.72v-.26c0-13.05-9.22-24.19-22.91-24.19s-22.78,11.01-22.78,23.93v.26c0,12.93,9.34,24.19,23.04,24.19s22.65-11.01,22.65-23.93ZM1508.12,234.47v-.05c0-11.73,9.38-21.35,21.4-21.35s21.08,9.57,21.08,21.1v.24c0,11.47-9.3,21.13-21.34,21.13s-21.14-9.65-21.14-21.09ZM1548.7,234.42v-.24c0-10.68-8.35-19.37-19.18-19.37s-19.46,8.91-19.46,19.62v.05c0,10.48,8.36,19.16,19.2,19.16s19.44-8.73,19.44-19.2ZM1521.01,222.82h9.72c2.84,0,5.1.89,6.5,2.36,1.08.87,1.87,2.37,1.87,4.17h0c0,3.58-2.4,5.84-5.76,6.36l6.88,8.72h-4.07l-6.2-8.2h-5.73v8.2h-3.2v-21.62ZM1530.43,233.43c3.15,0,5.36-1.27,5.36-3.89v-.04c0-2.25-2.06-3.7-5.15-3.7h-6.42v7.64h6.21ZM390.06,211.4c-7.23,4.61-36.06,20.94-62.25,17.19-29.83-4.05-39.12-29.93-41.13-63.51-.23-4.34-.43-8.85-.49-13.47h108.42c0-51.05-29.99-75.53-80.01-75.53s-84.87,38.91-84.87,86.61c0,2.42.03,4.8.26,7.08,3.3,48.27,39.98,80.36,85.4,80.36,47.73,0,72.78-18.2,82.6-26.12l-7.92-12.62ZM314.94,89.24c20.09,0,25.41,25.76,26.52,49.26h-54.09c.8-25.77,9.82-49.26,27.58-49.26ZM561.29,229.59v-110.9c0-23.42-18.47-44.6-53.57-44.2-44.72.4-68.52,10.25-83.95,15.91l1.45,36.74h27.36l4-31.08c9.43-.8,11.71-3.41,31.07,0,17.07,3.01,20.52,14.37,20.85,30.9v24.65l-.12.03-38.18,3.93c-32.13,2.24-59.65,18.76-59.65,49.18s22.24,42.98,46.8,42.98c27.25,0,43.61-11.73,51.55-18.16l2.61,18.16,74.4-3.76v-8.38l-24.6-6.02ZM508.49,216.46c-6.8,4.85-15.21,9.33-24.65,9.7-16.68,0-25.45-9.37-25.45-26.27,0-18.05,13.63-29.67,34.16-31.92l15.94-1.88v50.37ZM792.75,14.61v8.23l26.2,5.51-37.58,117.88-10.3,32.1-10.41-32.13-38.35-117.85,21.49-5.51v-8.23h-92.74v7.57l18.65,5.81,24.1,71.21-15.52,47.59-12.06,37.39-11.6-36.97-37.08-118.86,19.36-5.51v-8.23h-93.83v8.23l19.38,5.51.21-.06,40.79,120.1,32.99,96.77h24.85l34.14-98.58,7.5-21.66,7,21.53,32.28,98.71h26.84l35.19-98.81,42.14-118.06.15.06,21.53-5.51v-8.23h-75.33ZM1021.64,151.85c0-.17-.11-.34-.11-.51-5.17-51.18-50.74-76.5-95.73-76.5s-87.83,23.77-95.2,71.74c-.2,1.57-.42,3.14-.53,4.77-.41,3.19-.55,6.48-.55,9.9,0,55.57,48.44,87.21,96.29,87.21s96.26-31.65,96.26-87.21c0-3.22-.17-6.35-.42-9.39ZM925.8,235.34c-26.8,0-39.95-34.78-39.95-74.09,0-3.36.06-6.66.27-9.9.06-1.29.23-2.59.29-3.81,2.76-33.16,15.8-59.59,39.39-59.59s37.19,27.53,39.57,61.75c0,.51.06,1.1.06,1.65.21,3.24.3,6.54.3,9.9,0,39.31-13.24,74.09-39.94,74.09ZM1105.38,130.99c9.08-8.34,19.74-14.71,34.41-14.71,11.7,0,17.82,3.79,22.65,7.57l16.33-36.6c-4.21-4.87-13.23-12.46-30.71-12.46-21.5,0-39.21,30.6-45.33,42.26l-4.1-42.26-71.39,4.18v7.88l25.33,6.46v137.24l-25.33,6.05v7.93h115.94v-9.06l-37.8-6.01v-98.46ZM1257.1,230.54V.05l-78.09,4.91v7.97l25.25,6.02v211.59l-25.25,6.05v7.93h103.01v-7.93l-24.92-6.05ZM1469.33,0l-87.52,4.88v9.04l34.72,6.4v69.25c-12.13-6.82-30.97-14.74-55.87-14.74-42.16,0-68.95,30.78-73.12,76.5-.31,4.14-.64,8.45-.64,12.87,0,1.62,0,3.29.16,4.87,1.69,51.46,29.98,79.03,73.95,79.03,21.92,0,42.65-7.89,55.52-18.04l1.83,17.68,77.02-3.39v-7.23l-26.06-6.69V0ZM1416.53,215.38c-7.17,4.16-15.14,10.16-31.34,10.16-27.32,0-40.06-18.75-42.03-51.31-.2-3.46-.25-7.06-.25-10.79.05-4.12.25-8.22.55-12.1,2.75-31.11,14.9-54.61,39.06-54.93,18.19,0,27.98,5.25,34.01,8.67v110.3ZM215.81,171.1c-1.01-7.47-3.1-14-6.19-19.76-12.57-23.4-40.14-34.3-61.09-45.58-25.72-13.68-51.4-23.31-51.4-51.4,0-18.52,14.79-30.14,32.27-30.14,20.21,0,34.16,11.63,42.69,17.82l5.59,32.6,21.12.07V18.73c-7.77-2.07-35.33-7.95-73.33-7.95-41.48,0-69.21,29.9-69.21,64.17,0,42.46,34.64,56.85,57.18,68.84,5.16,2.72,9.98,5.2,14.52,7.56,15.85,8.22,27.84,14.92,34.26,24.91,3.23,5.12,4.98,11.08,4.98,18.64,0,21.58-17.46,38.65-40.72,38.65-19.86,0-30.83-11.25-38.03-16.06l-8.31-32.35c-.3.03-.6.06-.84.08l-22.87,2.72c-.15,0-.27.03-.3.03l2.53,51.41c10.96,2.76,30.21,8.93,72.96,8.93s84.76-28.12,84.76-68.55c0-3.01-.2-5.92-.54-8.67Z" style="fill: #fff;"/>
</svg>